<svg xmlns="http://www.w3.org/2000/svg" viewBox="0 0 140.77 178.22"><defs><style>.cls-1{fill:#FFFFFF;}</style></defs><title>Asset 4</title><g id="Layer_2" data-name="Layer 2"><g id="Layer_1-2" data-name="Layer 1"><path id="path0" class="cls-1" d="M112,.24c-4.9,2.1-6.3,9.8-8.8,13.8-1.1,1.9-2.8,3.3-4.2,5a20.76,20.76,0,0,0-3.4,7.2c-2,6-2.1,12-2.7,18.3-.3,3.5-1,6.9-1.4,10.4-.7,5.3-1.3,10.6-2.2,15.8-.6,3.7-1.7,7.8-5.7,9.1-4.8,1.5-10.4-1.2-15-2.5a126,126,0,0,0-13.5-3.2,52.1,52.1,0,0,0-7.9-.1,72.66,72.66,0,0,0-8.1.1,44.63,44.63,0,0,0-13.8,4c-2.1,1-4.1,2.9-6.4,3.4-2.7.6-5.3-1.5-7.9-1.7-4.7-.3-10.2,3.2-10.9,8-.7,4.6,1.3,9.8,4,13.4a11.81,11.81,0,0,0,5,4.1c1.6.6,3.4.5,3.8,2.5.2,1.1-.6,2.7-.7,3.9a31.08,31.08,0,0,0-.3,4.3,29.91,29.91,0,0,0,2.1,9.3,30.68,30.68,0,0,0,4.4,8.4c1.4,1.8,4.1,3,4.6,5.3s-.2,5.1-.2,7.4c0,3.3.1,6.5.3,9.8a47.91,47.91,0,0,0,2.8,13c1.1,3.1,4.4,11.2,9.1,8.4,2.2-1.3,3.4-4.1,4.3-6.3a34.62,34.62,0,0,1,3.6-7.2c2.5-3.5,4.8-6.8,6.3-10.9,1.1-2.9,2-6,2.9-9,.5-1.7.9-3.7,2.4-4.9,2.1-1.6,6.1-.8,8.6-.9,3.9,0,7.9.2,11.7-.5,2.1-.4,6.1-3.3,7.8-1.7,1.3,1.1.9,4.4,1,5.9a23.3,23.3,0,0,0,1.1,7.4c2,5.7,3.6,11.7,6.4,17.1,1.7,3.3,5.8,10.1,9.9,5.9,2-2,2.8-5,3.7-7.6,1-2.8,2.7-5.2,4.1-7.8,5.9-10.5,6-22.8,6.7-34.5.7-11.4,2.3-22.5,3.4-33.9.7-7.1.9-14.2,2.1-21.3.9-5.2,1.6-10.5,2.5-15.7l1.2-6.3c.3-1.9.2-5.3,1.9-6.7,1.5-1.3,4.5-.9,6.3-1.6,2.7-1,5.9-3,7.1-5.8,2.5-5.7-1.9-11-6.4-13.8-2.6-1.6-4.7-2.4-6.1-5.3-1.2-2.4-2.6-4.2-5.2-5.1-2.3-.8-4.7-.4-6-2.8-1-1.7-1.4-5.3-4.3-4.1"/></g></g></svg>