<?xml version="1.0" encoding="utf-8"?>
<!-- Generator: Adobe Illustrator 21.1.0, SVG Export Plug-In . SVG Version: 6.00 Build 0)  -->
<svg version="1.1" id="Layer_1" xmlns="http://www.w3.org/2000/svg" xmlns:xlink="http://www.w3.org/1999/xlink" x="0px" y="0px"
	 viewBox="0 0 489 142.7" style="enable-background:new 0 0 489 142.7;" xml:space="preserve">
<style type="text/css">
	.st0{enable-background:new    ;}
	.st1{fill:#231F20;}
	.st2{fill:#010101;}
	.st3{fill:#020202;}
</style>
<title>Asset 1</title>
<g id="Layer_2">
	<g id="Layer_1-2">
		<g class="st0">
			<path class="st1" d="M118.2,30.2c0,9.2-6.2,15.2-15.6,15.2H87.1c-0.2,0-0.3,0.2-0.3,0.3v23.5c0,0.5-0.3,0.8-0.8,0.8h-4
				c-0.5,0-0.8-0.3-0.8-0.8V15.6c0-0.5,0.3-0.8,0.8-0.8h20.8C112,14.8,118.2,20.9,118.2,30.2z M112.7,30.3c0-6.4-4.3-10.7-10.5-10.7
				h-15c-0.2,0-0.3,0.2-0.3,0.3v20.5c0,0.2,0.2,0.3,0.3,0.3h15C108.4,40.8,112.7,36.6,112.7,30.3z"/>
		</g>
		<g class="st0">
			<path class="st1" d="M158.6,69.5l-3.2-10c-0.1-0.2-0.2-0.2-0.3-0.2h-23.7c-0.2,0-0.2,0-0.3,0.2l-3.1,10c-0.2,0.4-0.6,0.6-0.9,0.6
				h-4.3c-0.6,0-0.8-0.3-0.6-0.9l17.5-53.8c0.2-0.4,0.6-0.6,0.9-0.6h5.4c0.4,0,0.8,0.2,0.9,0.6l17.5,53.8c0.2,0.6-0.1,0.9-0.6,0.9
				h-4.3C159.1,70.1,158.7,69.9,158.6,69.5z M133,54.7h20.5c0.2,0,0.4-0.2,0.3-0.4l-10.3-32.5c-0.1-0.2-0.4-0.2-0.5,0l-10.3,32.5
				C132.6,54.5,132.8,54.7,133,54.7z"/>
		</g>
		<g class="st0">
			<path class="st1" d="M207.2,32.1v21.2c0,9.5-5.8,16.1-15,17.4c-0.2,0-0.3,0.2-0.3,0.3v7.5c0,0.5-0.3,0.8-0.8,0.8h-4
				c-0.5,0-0.8-0.3-0.8-0.8v-7.5c0-0.2-0.1-0.3-0.3-0.3c-9.2-1.3-15.1-7.9-15.1-17.4V32.1c0-10.7,7.3-17.9,18.2-17.9
				S207.2,21.4,207.2,32.1z M201.6,31.8c0-7.6-5.1-12.7-12.6-12.7s-12.6,5.1-12.6,12.7v21.3c0,7.6,5.1,12.7,12.6,12.7
				s12.6-5.1,12.6-12.7V31.8z"/>
		</g>
		<g class="st0">
			<path class="st1" d="M218.6,53.1V15.6c0-0.5,0.3-0.8,0.8-0.8h4c0.5,0,0.8,0.3,0.8,0.8v37.6c0,7.5,5.3,12.6,13.2,12.6
				c7.9,0,13.2-5.1,13.2-12.6V15.6c0-0.5,0.3-0.8,0.8-0.8h4c0.5,0,0.8,0.3,0.8,0.8v37.4c0,10.7-7.5,17.7-18.8,17.7
				C226.2,70.8,218.6,63.7,218.6,53.1z"/>
		</g>
		<g class="st0">
			<path class="st1" d="M267.6,53.3V31.6c0-10.4,7.4-17.4,18.6-17.4c11.1,0,18.6,6.8,18.6,17.1c0,0.5-0.3,0.9-0.8,0.9l-4,0.2
				c-0.5,0-0.8-0.2-0.8-0.5v-0.5c0-7.4-5.1-12.3-13-12.3c-7.7,0-13,4.9-13,12.3v22.1c0,7.4,5.2,12.3,13,12.3c7.8,0,13-4.9,13-12.3
				v-0.2c0-0.5,0.3-0.7,0.8-0.7l4,0.2c0.5,0,0.8,0.1,0.8,0.3v0.4c0,10.3-7.4,17.2-18.6,17.2C275,70.9,267.6,63.8,267.6,53.3z"/>
		</g>
		<g class="st0">
			<path class="st1" d="M349.5,14.8h4c0.5,0,0.8,0.3,0.8,0.8v53.7c0,0.5-0.3,0.8-0.8,0.8h-4c-0.5,0-0.8-0.3-0.8-0.8V45.1
				c0-0.2-0.2-0.3-0.3-0.3h-25.2c-0.2,0-0.3,0.2-0.3,0.3v24.3c0,0.5-0.3,0.8-0.8,0.8h-4c-0.5,0-0.8-0.3-0.8-0.8V15.6
				c0-0.5,0.3-0.8,0.8-0.8h4c0.5,0,0.8,0.3,0.8,0.8v23.9c0,0.2,0.2,0.3,0.3,0.3h25.2c0.2,0,0.3-0.2,0.3-0.3V15.6
				C348.7,15.2,349,14.8,349.5,14.8z"/>
		</g>
		<g class="st0">
			<path class="st1" d="M401.3,69.5l-3.2-10c-0.1-0.2-0.2-0.2-0.3-0.2h-23.7c-0.2,0-0.2,0-0.3,0.2l-3.1,10c-0.2,0.4-0.6,0.6-0.9,0.6
				h-4.3c-0.6,0-0.8-0.3-0.6-0.9l17.5-53.8c0.2-0.4,0.6-0.6,0.9-0.6h5.4c0.4,0,0.8,0.2,0.9,0.6l17.5,53.8c0.2,0.6-0.1,0.9-0.6,0.9
				h-4.3C401.9,70.1,401.5,69.9,401.3,69.5z M375.8,54.7h20.5c0.2,0,0.4-0.2,0.3-0.4l-10.3-32.5c-0.1-0.2-0.4-0.2-0.5,0l-10.3,32.5
				C375.4,54.5,375.6,54.7,375.8,54.7z"/>
		</g>
		<g id="Layer_2-2">
			<g id="Layer_1-2-2">
				<g id="svgg">
					<path class="st2" d="M170.3,129.8c-0.5,0.3-0.7,1.1-0.8,3c-0.3,4-3.7,8.5-5.3,6.9c-1.4-1.4-1.8-3.6-1.8-8.9v-5.1l1.1-1.8
						c2.3-3.8,6.1-12.3,6.6-14.8c0.3-1.8-0.9-1.2-1.4,0.6c-1.5,4.6-3.5,9-5.8,13.2c-0.9,1.4-0.9,1.4-1.3,0.6c-1-2.1-6-0.3-6.8,2.5
						c-0.6,2-0.4-0.2,0.5-4.4c1.1-5.3,1.1-5.4,3.3-8.3c4.3-5.8,4.8-10.9,0.8-8.1c-1.3,0.9-3,5.4-4,10.3c-0.5,2.4-5.2,5.8-8,5.8
						c-3.2,0-3.8-3.3-1.4-7.9c0.9-1.8,1.1-2.3,0.6-2.2c-0.7,0.1-3.2,5-3.4,6.7c-0.7,5.3,5,6.3,10.1,1.8c1.6-1.4,1.6-1.6,0.3,4.2
						c-0.5,2.5-1.5,7.4-2.1,10.7s-1.1,6.5-1.3,7c-0.1,0.7-0.1,0.9,0.3,0.9c0.6,0,1.6-1.9,1.6-3c0-0.4,0.3-2,0.6-3.7s0.7-4.1,0.9-5.5
						l0.4-2.5l0.2,1.5c0.4,2.6,2.3,2.7,4.9,0.3l1.5-1.4v4.4c0,9.6,2.7,12.1,7.2,6.8C171.1,135.6,173.1,127.7,170.3,129.8z
						 M157.7,111.4c1.3-4.9,2.5-6.9,3.2-5.2c0.2,0.6-1.9,5.3-3.2,6.9C157,113.9,157,113.9,157.7,111.4z M158.6,128.8
						c-1.4,1.2-2.2,1.1-2.6-0.5c-0.8-3.1,3-6.1,4.2-3.3C160.7,126.3,160.2,127.4,158.6,128.8L158.6,128.8z"/>
					<path class="st2" d="M211.3,113.4c0.4-0.2,0.6-0.6,0.4-1c-0.1-0.2-0.2-0.3-0.4-0.4c-0.3,0-0.6,0.1-0.7,0.3
						c-0.3,0.2-0.3,0.7,0,0.9C210.7,113.5,211,113.5,211.3,113.4z"/>
					<path class="st2" d="M234.3,134.9c-5.3,10.3-9.8,4.1-8.2-11.1c0.5-5,0.7-5.3,2.2-5.5s3.6-1.5,3.6-2.2c0-0.4-0.2-0.4-0.6-0.3
						c-1.4,0.4-2.7,0.8-4.1,1c0,0,0.5-1.7,1-3.7s1-3.8,1-3.9c0-0.4-0.9-0.4-1.1-0.1c-0.3,0.9-0.6,1.8-0.9,2.8
						c-1.5,5.7-1.2,5.4-6.6,6.4c-2.1,0.4-3.3,1.1-2.8,1.6c1.2,0,2.4-0.1,3.5-0.3c3.8-0.7,3.8-0.7,3,1.1c-1.4,3.2-3.9,5.7-5.5,5.7
						c-0.9,0-1.4,1.3-0.8,1.7c1.2,0.7,4.6-2.2,6.1-5.2c0.9-1.8,0.9-1.6,0.4,2.5c-1.6,11.5,2.1,20,6.8,15.9c1.4-1.2,5.1-8.3,4.9-9.3
						C236.1,131.7,235.5,132.6,234.3,134.9z"/>
					<path class="st2" d="M193,135.6c-2.1,4.1-2.3,4.2-3.5,1.8s-1.1-5.9,0.6-12.6c2.4-9.2,1.4-11.5-2.9-7.4c-2,1.9-5.4,8.5-6.9,13.3
						c-0.5,1.6-0.9,2.6-0.9,2.2c0-1,1-13.4,1.2-14.7c0.2-1.5-0.2-2.2-1.3-1.9c-2.4,0.6-6.8,6.3-4.9,6.3c0.3,0,0.6-0.4,0.8-0.9
						c0.4-1.3,2.7-3.8,3.4-3.8c0.4,0,0.5,0.3,0.3,1.9c-0.1,1.1-0.6,6-1.1,10.9c-0.5,4.9-0.9,9.4-1,9.9c-0.3,1.2,0.5,1.6,1.2,0.7
						c0.9-2,1.6-4.1,2.2-6.2c2.9-10,6.6-17.5,8.5-17.5c1,0,1,2.9,0,6.1c-1.8,5.8-2.4,12.4-1.3,14.9c1.9,4.2,3.5,3.9,5.9-1.1
						C196.3,131.2,196,129.8,193,135.6z"/>
					<path class="st2" d="M210.5,137.6c-3.2,4.7-5.3,2.1-5-6.2c0.2-5.8,0.5-6.7,2.9-10.3c2.2-3.3,2.2-4.5,0-3.3c-1.1,0.6-2,2-3,4.6
						c-0.9,2.2-2.4,4-4.4,5.2c-1.6,1.1-2,1.5-2,2.2c0,0.9,1.1,0.3,3.3-1.8l2.3-2.2l-0.5,2.3c-2.5,11.4,2.6,18.1,7.4,9.8
						C213.2,134.9,212.5,134.7,210.5,137.6z"/>
				</g>
				<g id="svgg-2">
					<path id="path0" class="st2" d="M339.4,118.9c-0.8,0.8-2.2,4.8-2.2,6.2c0,0.5-2.7,2-3.8,2.1c-1.9,0.2-1.8,0.2-1.9-3.4
						c0-4.1-0.6-5-2.9-4.7c-3.9,0.5-4,6.3-0.1,8.7c1,0.6,1.1,0.7,0.9,1.8c-0.5,2.9-2.9,8.4-4.3,9.9c-0.7,0.7-0.7,0.9-0.3,1
						c1.2,0.5,3.1-2.7,5-8.4l0.5-1.6c0.3-1,1.2-1.7,2.2-1.8l0,0c1-0.1,1.9-0.4,2.8-0.7c1.5-0.7,1.4-0.8,1.1,2.7
						c-0.9,10.5,4.6,16.2,8.3,8.6c1.2-2.4,1.2-3.3,0-2.9s-1.3,0.8-1.3,1.9c0,0.4-0.1,0.9-0.3,1.2c-0.1,0.2-0.2,0.4-0.4,0.6l-0.3,0.3
						c-0.3,0.2-0.7,0.3-1.1,0.1l0,0c-0.5-0.2-1-0.6-1.4-1l-0.3-0.3c-1.7-1.7-1.9-4.1-1.5-9.7l0.1-2.2c0-0.6,0.3-1.2,0.7-1.7l0.6-0.6
						C343.3,121.3,342.9,115.3,339.4,118.9 M247.7,117.6c-0.9,0.4-2.3,2.7-3.3,5.5c-0.8,2.2-0.9,2.4-1.7,2.4c-1.8,0-2.2-2.2-1.1-3.7
						c0.6-0.9,0.6-0.9,0.1-0.9c-1.2,0-2.3,2.9-1.6,4.2c0.5,0.8,1.4,1.3,2.3,1.2h0.8L243,129c-0.7,8.8,0.7,13.1,4.4,13.5
						c2.9,0.3,6.3-2.4,7.1-5.6c0.3-1,0.5-0.9,1,0.7c1.2,4.2,5.6,5.4,8.5,2.4c2.1-2.8,3.6-6.1,4.3-9.6c0.6-3.6-1.7-11.1-3.1-11.1
						c-1.1,0-1.4,0.8-0.8,2.5c2.5,7.1,0.3,18.7-3.4,17.9c-2.9-0.7-4.4-3.6-4.4-8.9c0-2.7-0.1-3.7-0.4-3.7c-0.8,0-1.3,1-1.6,3.6
						c-1.2,8.3-4.6,12.4-7.8,9.4c-1.7-1.6-2.2-3.2-2.4-7.5c-0.1-5.1,0.1-6.1,1.8-7.7s3.3-4.8,3.3-6.4
						C249.5,117.3,249.1,117.1,247.7,117.6 M283.7,117.9c-1.7,0.9-4.4,5.7-5.6,9.8c-0.6,2.1-1.2,2.5-2.9,2c-1.2-0.3-1.7-1.1-1.2-1.9
						s0-1.1-0.8-0.6c-2.4,1.5-0.7,4.1,2.5,4l1.6-0.1l0.2,2.5c0.7,10,9.1,12.6,13.2,4c0.9-1.8,0.9-2.6,0.2-2.6
						c-0.6,0-1.9,1.1-1.9,1.5c-0.2,0.6-0.4,1.1-0.6,1.7c-2.6,5.5-8.3,1.9-9-5.6l-0.2-2l1.4-1c3.9-2.7,7.8-7.8,7.8-10.2
						C288.3,117.6,285.7,116.8,283.7,117.9 M340.5,120.9c-0.2,0.6-0.4,1.2-0.7,1.7l-0.5,0.9v-0.8c0-1,0.8-3.1,1.2-2.9
						C340.7,120,340.7,120.4,340.5,120.9 M247.6,120.7c-1.5,3.1-1.8,3.6-1.8,2.5c0.3-1.4,0.8-2.8,1.6-4
						C248,118.6,248.1,119.7,247.6,120.7 M286.3,119.3c0.7,1.5-1.5,5-5.1,8.1c-1.4,1.2-1.6,1-0.9-1.2
						C281.9,120.7,285.2,117,286.3,119.3 M329.2,120.5c0.8,0.5,1.4,6.1,0.6,6.1s-2.3-2.1-2.5-3.2C326.9,121.3,328,119.7,329.2,120.5
						"/>
				</g>
				<g id="svgg-3">
					<path id="path0-2" class="st2" d="M306.7,117.5c-3.6,1-5.6,4.7-7,8.1c-1.6,3.8-3,8.5-1.5,12.5c0.6,1.7,1.6,3.8,3.4,4.3
						s3.4-0.5,4.7-1.6c1.3-1.3,2.3-2.7,3.2-4.3c0.5-0.7,0.9-1.4,1.4-2.2c0.2-0.3,0.8-1.8,1.2-2c-0.1,0,1.6,4.4,1.8,4.8
						c0.8,1.5,2.4,2.6,4.1,1.9s2.3-3.2,2.7-4.9c0.1-0.4,0.3-1.3,0-1.6c-0.5-0.6-1.4,0.4-1.6,0.8c-0.6,1-0.6,5-2.5,3.7
						c-1.1-0.8-1.8-2.8-2.2-4.1c-0.7-1.6-0.8-3.4-0.3-5.1c0.7-1.8,1.2-3.6,1.5-5.5c0.1-1.3,0-3.6-1.6-3c-1.4,0.5-1.8,2.3-2,3.7
						c-0.3,2-0.4,4-0.3,5.9c-0.1,1.1-0.5,2.2-1.1,3.1c-0.9,1.7-1.9,3.4-3,5c-0.8,1.2-1.5,2.5-2.9,3c-4.1,1.5-5.6-4.9-5.4-8
						c0.3-2.9,1.2-5.7,2.6-8.2c1.1-2.2,2.8-4.7,5.3-5.2c1-0.2,2.1,0.1,2.9,0.8c0.6,0.5,1.5,0.9,1-0.4
						C310.2,117.4,308,117.1,306.7,117.5 M313.7,123.5c0,0.2-0.2,1.5-0.5,1.5c0-1,0.2-2,0.4-3C313.7,122.1,313.7,123.3,313.7,123.5"
						/>
				</g>
			</g>
		</g>
		<rect y="92.1" class="st1" width="489" height="0.6"/>
		<g id="Layer_2-3">
			<g id="Layer_1-2-3">
				<path id="path0-2-2" class="st3" d="M48.6,0.1c-2.1,0.9-2.7,4.3-3.8,6c-0.5,0.8-1.2,1.5-1.8,2.2c-0.7,0.9-1.2,2-1.5,3.1
					c-0.9,2.6-0.9,5.2-1.2,7.9c-0.1,1.5-0.4,3-0.6,4.5c-0.3,2.3-0.6,4.6-1,6.9c-0.3,1.6-0.7,3.4-2.5,3.9c-2.1,0.7-4.5-0.5-6.5-1.1
					c-1.9-0.6-3.9-1-5.9-1.4c-1.1-0.1-2.3-0.1-3.4,0c-1.2-0.1-2.3-0.1-3.5,0c-2.1,0.2-4.1,0.8-6,1.7c-0.9,0.6-1.8,1.1-2.8,1.5
					c-1.2,0.3-2.3-0.7-3.4-0.7c-2-0.1-4.4,1.4-4.7,3.5c-0.2,2.1,0.4,4.2,1.7,5.8c0.6,0.8,1.3,1.4,2.2,1.8c0.7,0.3,1.5,0.2,1.7,1.1
					c0.1,0.5-0.3,1.2-0.3,1.7c-0.1,0.6-0.1,1.2-0.1,1.9c0.1,1.4,0.4,2.7,0.9,4C6.6,55.6,7.2,56.9,8,58c0.6,0.8,1.8,1.3,2,2.3
					c0.1,1.1,0,2.1-0.1,3.2c0,1.4,0,2.8,0.1,4.3c0.1,1.9,0.5,3.8,1.2,5.6c0.5,1.3,1.9,4.9,3.9,3.6c0.9-0.7,1.5-1.6,1.9-2.7
					c0.4-1.1,0.9-2.1,1.6-3.1c1.1-1.4,2-3,2.7-4.7c0.5-1.3,0.9-2.6,1.3-3.9c0.1-0.8,0.5-1.5,1-2.1c0.9-0.7,2.6-0.3,3.7-0.4
					c1.7,0.1,3.4,0,5.1-0.2c0.9-0.2,2.7-1.4,3.4-0.7c0.6,0.5,0.4,1.9,0.4,2.6c0,1.1,0.1,2.2,0.5,3.2c0.8,2.5,1.7,5,2.8,7.4
					c0.7,1.4,2.5,4.4,4.3,2.6c0.8-1,1.3-2.1,1.6-3.3c0.5-1.2,1.1-2.3,1.8-3.4c2.6-4.5,2.6-9.9,2.9-15s1-9.8,1.5-14.7
					c0.3-3.1,0.4-6.2,0.9-9.2c0.4-2.3,0.7-4.6,1.1-6.8l0.5-2.7c0.1-0.8,0.1-2.3,0.8-2.9s2-0.4,2.7-0.7c1.3-0.4,2.4-1.3,3.1-2.5
					c1.1-2.5-0.8-4.8-2.8-6c-1.1-0.7-2-1-2.7-2.3c-0.4-1-1.2-1.8-2.2-2.1c-1-0.3-2-0.2-2.6-1.2C50,1.1,49.8-0.4,48.6,0.1"/>
			</g>
		</g>
		<g id="Layer_2-4">
			<g id="Layer_1-2-4">
				<path id="path0-3" class="st3" d="M440.4,0.1c-1.3-0.5-1.4,1-1.9,1.8c-0.6,1-1.6,0.9-2.6,1.2c-1,0.4-1.8,1.2-2.3,2.2
					c-0.6,1.3-1.5,1.6-2.6,2.3c-2,1.2-3.9,3.5-2.8,6c0.7,1.2,1.8,2.1,3.1,2.5c0.8,0.3,2.1,0.1,2.7,0.7s0.7,2.1,0.8,2.9l0.5,2.7
					c0.4,2.3,0.7,4.5,1.1,6.8c0.5,3.1,0.6,6.2,0.9,9.2c0.5,4.9,1.2,9.8,1.5,14.7s0.4,10.4,2.9,15c0.7,1.1,1.3,2.2,1.8,3.4
					c0.3,1.2,0.8,2.3,1.6,3.3c1.8,1.8,3.6-1.1,4.3-2.6c1.1-2.4,2-4.9,2.8-7.4c0.3-1,0.5-2.1,0.5-3.2c0-0.7-0.1-2.1,0.4-2.6
					c0.7-0.7,2.5,0.6,3.4,0.7c1.7,0.2,3.4,0.3,5.1,0.2c1.1,0,2.8-0.3,3.7,0.4c0.5,0.6,0.9,1.3,1,2.1c0.4,1.3,0.8,2.6,1.3,3.9
					c0.7,1.7,1.6,3.3,2.7,4.7c0.6,1,1.2,2,1.6,3.1c0.4,1.1,1,2,1.9,2.6c2,1.2,3.5-2.3,4-3.6c0.7-1.8,1.1-3.7,1.2-5.6
					c0.1-1.4,0.1-2.8,0.1-4.3c-0.1-1.1-0.2-2.1-0.1-3.2c0.2-1,1.4-1.5,2-2.3c0.8-1.1,1.5-2.3,1.9-3.6c0.5-1.3,0.8-2.6,0.9-4
					c0-0.6,0-1.2-0.1-1.9c0-0.5-0.4-1.2-0.3-1.7c0.2-0.9,1-0.8,1.6-1.1c0.9-0.4,1.6-1,2.2-1.8c1.3-1.6,1.9-3.7,1.7-5.8
					c-0.3-2.1-2.7-3.6-4.7-3.5c-1.1,0.1-2.3,1-3.4,0.7c-1-0.4-1.9-0.9-2.8-1.5c-1.9-0.9-3.9-1.5-6-1.7c-1.2-0.1-2.3-0.1-3.5,0
					c-1.1-0.1-2.3-0.1-3.4,0c-2,0.4-3.9,0.8-5.9,1.4c-2,0.6-4.4,1.7-6.5,1.1c-1.7-0.6-2.2-2.3-2.5-4c-0.4-2.3-0.6-4.5-1-6.9
					c-0.2-1.5-0.5-3-0.6-4.5c-0.3-2.7-0.3-5.3-1.2-7.9c-0.3-1.1-0.8-2.2-1.5-3.1c-0.7-0.7-1.3-1.4-1.8-2.2
					C443.1,4.4,442.5,1,440.4,0.1"/>
			</g>
		</g>
	</g>
</g>
</svg>
