<?xml version="1.0" encoding="UTF-8" standalone="no"?>
<svg
   xmlns:dc="http://purl.org/dc/elements/1.1/"
   xmlns:cc="http://creativecommons.org/ns#"
   xmlns:rdf="http://www.w3.org/1999/02/22-rdf-syntax-ns#"
   xmlns:svg="http://www.w3.org/2000/svg"
   xmlns="http://www.w3.org/2000/svg"
   viewBox="0 0 1121.7067 788.97333"
   height="788.97333"
   width="1121.7067"
   xml:space="preserve"
   id="svg2"
   version="1.1"><metadata
     id="metadata8"><rdf:RDF><cc:Work
         rdf:about=""><dc:format>image/svg+xml</dc:format><dc:type
           rdf:resource="http://purl.org/dc/dcmitype/StillImage" /></cc:Work></rdf:RDF></metadata><defs
     id="defs6"><clipPath
       id="clipPath20"
       clipPathUnits="userSpaceOnUse"><path
         id="path18"
         d="M 0,0 H 8413 V 5917 H 0 Z" /></clipPath><clipPath
       id="clipPath26"
       clipPathUnits="userSpaceOnUse"><path
         id="path24"
         d="M 8411.59,5917.26 H 1.58203 V 1495.44 H 8412.81 v 4393.58 h -1.22 v 28.24" /></clipPath><linearGradient
       id="linearGradient32"
       spreadMethod="pad"
       gradientTransform="matrix(-1.9e-4,4421.81,8451.23,3.7e-4,-18.418,1495.44)"
       gradientUnits="userSpaceOnUse"
       y2="0"
       x2="1"
       y1="0"
       x1="0"><stop
         id="stop28"
         offset="0"
         style="stop-opacity:1;stop-color:#ffffff" /><stop
         id="stop30"
         offset="1"
         style="stop-opacity:1;stop-color:#407ec9" /></linearGradient><clipPath
       id="clipPath42"
       clipPathUnits="userSpaceOnUse"><path
         id="path40"
         d="m 8411.59,4160.13 h 1.2188 v 17.125 h -1.2188 z" /></clipPath><linearGradient
       id="linearGradient48"
       spreadMethod="pad"
       gradientTransform="matrix(0,17.124,41.2207,0,8391.59,4160.13)"
       gradientUnits="userSpaceOnUse"
       y2="0"
       x2="1"
       y1="0"
       x1="0"><stop
         id="stop44"
         offset="0"
         style="stop-opacity:1;stop-color:#ffffff" /><stop
         id="stop46"
         offset="1"
         style="stop-opacity:1;stop-color:#407ec9" /></linearGradient><clipPath
       id="clipPath58"
       clipPathUnits="userSpaceOnUse"><path
         id="path56"
         d="m 8390.23,1963.51 c -31.19,6.54 -56.14,52.73 -81.02,72.58 -24.97,19.74 -18.77,52.78 -37.51,85.67 -18.68,33.13 -31.15,72.62 -31.15,72.62 l -74.85,46.03 c 0,0 -37.46,0 -93.6,0 -56.12,0 -93.59,-6.54 -93.59,-6.54 l -49.85,-13.15 -87.37,-19.79 -68.63,39.48 c 0,0 -37.43,-65.88 -43.66,-98.81 -6.25,-33.01 -43.68,-46.19 -68.6,-59.41 -25.02,-13.17 -62.4,0 -62.4,0 l -43.69,-72.5 -49.92,26.4 -49.87,65.86 -43.67,46.19 -56.1,-32.94 -68.73,-26.33 -56.08,39.48 -93.6,6.62 h -37.39 l -43.7,-39.56 -43.64,39.56 -43.68,33.02 -49.92,-59.4 h -87.28 l -50,-6.64 -68.59,-59.32 -43.69,72.57 -24.88,65.96 -56.16,46.15 -81.14,32.92 -49.89,19.82 h -68.59 c 0,0 -81.13,39.5 -99.85,52.76 -18.69,13.28 -56.14,19.82 -56.14,19.82 l -99.84,39.48 -81.07,13.22 -62.35,-6.66 -43.72,-13.08 -93.58,6.52 h -74.81 l -56.18,-52.75 h -74.83 l -87.35,-59.31 -87.35,-33.02 -93.59,-26.31 -137.19,-19.79 -62.45,-19.77 -68.58,-26.27 -81.09,-6.75 -74.84,-32.94 -68.66,-19.79 -74.84,46.19 h -37.5 l -31.16,-66.03 -56.11,6.62 -31.19,26.4 -49.89,-39.57 -31.25,-59.33 -18.74,-52.74 -56.09,-72.57 -31.16,-39.59 -62.43,-46.13 -49.89,-6.55 -31.2,72.43 -93.57,72.57 c 0,0 -43.64,-59.33 -62.37,-72.57 -18.72,-13.09 -18.72,-19.75 -56.17,-19.75 -37.38,0 -74.86,-26.28 -74.86,-26.28 0,0 -49.89,-33 -68.62,-33 -18.69,0 -43.65,46.09 -43.65,46.09 l -93.61,13.19 -74.84,-19.74 -106.06,-32.94 c 0,0 -112.27,0 -130.98,6.55 -18.71,6.54 -87.34,32.94 -87.34,32.94 l -68.66,13.19 -74.8,-39.59 -93.62,-46.09 -68.6,-39.5 -87.35,6.55 -99.82,26.31 -93.52,46.19 H 2782 l -43.64,-13.15 -74.87,-13.24 -37.44,-26.34 -56.14,-59.33 -106.05,-52.78 h -49.9 l -87.35,-33.1 c 0,0 -93.56,-32.86 -112.3,-32.86 -18.68,0 -81.08,-33 -81.08,-33 l -68.62,13.21 -99.81,85.75 -37.44,-39.56 -24.93,-32.94 h -43.68 l -56.17,19.77 -37.45,26.3 -43.61,-13.13 -24.95,-98.88 h -49.93 l -56.11,13.13 -62.42,26.35 -81.14,65.86 -37.36,-19.63 -62.4,-39.57 -74.89,-59.33 -49.93,52.67 -74.82,59.4 h -43.63 l -56.18,-19.74 h -43.66 l -49.928,-13.2 -56.137,-6.63 -99.777,-39.49 -6.285,-237.4 H 8412.81 v 679.68 c -8.46,2.5 -16.29,4.65 -22.58,6.03" /></clipPath><linearGradient
       id="linearGradient66"
       spreadMethod="pad"
       gradientTransform="matrix(3263.05,-3888.75,-4852.97,-4072.12,5515.33,5473.28)"
       gradientUnits="userSpaceOnUse"
       y2="0"
       x2="1"
       y1="0"
       x1="0"><stop
         id="stop60"
         offset="0"
         style="stop-opacity:1;stop-color:#ffffff" /><stop
         id="stop62"
         offset="0.76716532"
         style="stop-opacity:1;stop-color:#33869e" /><stop
         id="stop64"
         offset="1"
         style="stop-opacity:1;stop-color:#33869e" /></linearGradient><clipPath
       id="clipPath76"
       clipPathUnits="userSpaceOnUse"><path
         id="path74"
         d="m 8380.82,1397.18 h -55.76 l -55.84,-20.36 -51.12,40.79 -32.6,50.86 -55.77,30.49 -60.48,30.57 -37.24,45.74 -41.78,30.51 -46.5,30.65 -46.53,45.72 -46.49,15.25 -65.12,35.67 c 0,0 -18.59,25.52 -32.52,25.52 -13.97,0 -51.18,15.25 -51.18,15.25 l -55.75,30.48 -23.29,35.69 -102.32,-5.2 -60.47,40.73 -27.86,45.9 -18.59,45.73 -51.17,45.74 -74.39,25.47 h -60.49 l -79.04,-10.08 -60.4,-15.39 h -65.14 l -60.46,30.64 -41.83,40.72 -69.78,30.5 -41.83,45.73 -51.19,45.89 -37.19,35.54 -37.18,66.16 -27.89,50.94 -18.62,45.81 -32.56,30.5 H 6544 l -74.4,-25.46 -65.13,-25.39 -79.02,-30.56 -79.06,-40.73 -65.16,-35.58 -69.71,-35.69 h -69.77 l -41.84,25.45 -55.78,-20.35 -106.98,-35.61 -88.36,-35.59 -60.38,-45.83 -55.79,-10.2 h -37.22 l -51.19,-5.03 -93.02,-20.43 c 0,0 -51.12,-20.28 -65.06,-30.51 -13.96,-10.2 -69.76,5.05 -69.76,5.05 l -74.46,20.42 -65.05,15.25 -65.14,-15.25 -83.67,-10.22 -37.28,15.26 -69.64,-35.53 -60.5,5.02 h -92.99 l -65.04,-20.28 -69.81,-20.42 c 0,0 -37.19,0 -51.19,0 -13.93,0 -74.41,-10.22 -88.39,-15.26 -13.89,-5.02 -65.07,-15.25 -79.05,-15.25 -13.91,0 -78.99,10.23 -78.99,10.23 h -74.42 c 0,0 -55.79,-30.64 -69.77,-35.68 -13.94,-5.04 -79.03,15.24 -93.02,10.21 -13.99,-5.17 -92.99,5.03 -92.99,5.03 0,0 -37.2,-15.24 -46.47,-30.48 -9.35,-15.25 -69.78,-50.95 -69.78,-50.95 l -83.68,15.26 c 0,0 -41.88,10.21 -55.82,-10.13 -13.96,-20.36 -79.05,-40.65 -79.05,-40.65 h -69.76 c 0,0 -51.16,25.33 -69.75,5.04 -18.58,-20.44 -106.91,-61.14 -106.91,-61.14 l -79.05,-55.99 c 0,0 -46.51,-20.3 -65.15,-40.73 -18.56,-20.35 -55.77,-60.98 -55.77,-60.98 l -60.44,-30.57 -23.27,-40.64 h -46.51 l -55.81,-15.39 -51.14,25.47 -46.52,15.25 -41.84,-15.25 -60.43,25.45 c 0,0 -13.94,5.11 -27.98,5.11 -13.85,0 -65.01,25.47 -65.01,25.47 h -46.55 l -55.84,-20.35 h -60.41 l -46.5,15.24 -37.15,-10.22 -51.24,-40.7 -69.71,25.45 c 0,0 -55.82,0 -69.73,-10.2 -13.99,-10.08 -79.06,-5.06 -79.06,-5.06 l -79.09,-15.25 c 0,0 -27.86,-10.2 -46.46,-25.45 -18.65,-15.25 -55.84,-30.49 -69.79,-30.49 -13.98,0 -60.44,0 -60.44,0 l -55.82,25.47 -79.03,25.45 c 0,0 -92.99,-35.68 -106.97,-35.68 -13.97,0 -55.8,-40.72 -69.7,-50.91 -14.01,-10.22 -69.78,-30.51 -69.78,-30.51 l -41.87,-30.49 -74.42,-40.79 -60.46,-20.35 -65.02,-71.21 c 0,0 -32.62,-50.92 -46.51,-61.06 -14,-10.22 -97.69,-30.57 -97.69,-30.57 l -107.01,-35.53 -55.77,10.08 h -65.08 c 0,0 -69.765,-25.39 -88.335,-20.29 -18.579,5.04 -69.832,45.74 -69.832,45.74 l -83.684,15.32 c 0,0 -60.426,20.37 -74.356,25.39 -13.996,5.12 -79.085,40.7 -79.085,40.7 l -51.114,45.84 -51.211,-35.62 c 0,0 -65.109,-20.35 -79.058,-20.35 -13.91,0 -41.832,0 -41.832,0 0,0 -27.895,-50.93 -51.16,-61.07 -23.243,-10.21 -23.243,-40.72 -46.485,-50.91 -23.301,-10.14 -88.324,15.25 -88.324,15.25 l -74.4727,76.37 -51.1172,35.69 c 0,0 -27.2344,33.94 -46.08207,39.78 V 502.727 H 8412.81 v 886.383 l -31.99,8.07" /></clipPath><linearGradient
       id="linearGradient84"
       spreadMethod="pad"
       gradientTransform="matrix(-8e-5,1932.62,8451.23,3.7e-4,-18.418,502.725)"
       gradientUnits="userSpaceOnUse"
       y2="0"
       x2="1"
       y1="0"
       x1="0"><stop
         id="stop78"
         offset="0"
         style="stop-opacity:1;stop-color:#ffffff" /><stop
         id="stop80"
         offset="0.76716532"
         style="stop-opacity:1;stop-color:#33869e" /><stop
         id="stop82"
         offset="1"
         style="stop-opacity:1;stop-color:#33869e" /></linearGradient><clipPath
       id="clipPath94"
       clipPathUnits="userSpaceOnUse"><path
         id="path92"
         d="m 8373.59,1672.87 -69.74,-35.53 c 0,0 -106.94,-5.11 -125.57,-5.11 -18.58,0 -51.11,-40.78 -51.11,-40.78 l -51.13,-35.62 -74.5,-76.3 c 0,0 -65,-25.46 -88.31,-15.25 -23.22,10.13 -23.22,40.71 -46.49,50.92 -23.24,10.16 -51.15,61.08 -51.15,61.08 0,0 -27.91,0 -41.85,0 -13.98,0 -79.05,20.27 -79.05,20.27 l -51.19,35.68 -51.12,-45.81 c 0,0 -65.08,-35.67 -79.08,-40.73 -13.95,-5.12 -74.36,-25.45 -74.36,-25.45 l -83.69,-15.25 c 0,0 -51.25,-40.71 -69.8,-45.89 -18.63,-5.03 -88.34,20.43 -88.34,20.43 h -65.09 l -55.78,-10.21 -106.98,35.67 c 0,0 -83.72,20.37 -97.71,30.51 -13.89,10.19 -46.51,61.05 -46.51,61.05 l -65.02,71.28 -60.5,20.35 -74.38,40.73 -41.88,30.49 c 0,0 -55.79,20.36 -69.78,30.56 -13.93,10.14 -55.73,50.93 -69.72,50.93 -13.97,0 -106.95,35.53 -106.95,35.53 l -79.02,-25.4 -55.82,-25.45 c 0,0 -46.45,0 -60.45,0 -13.92,0 -51.17,15.32 -69.79,30.49 -18.57,15.32 -46.48,25.46 -46.48,25.46 l -79.07,15.34 c 0,0 -65.09,-5.19 -79.03,5.03 -13.97,10.22 -69.76,10.22 -69.76,10.22 l -69.71,-25.48 -51.23,40.71 -37.16,10.22 -46.52,-15.26 h -60.39 l -55.86,20.3 h -46.51 c 0,0 -51.18,-25.47 -65.06,-25.47 -14.02,0 -27.96,-5.02 -27.96,-5.02 l -60.45,-25.48 -41.82,15.26 -46.51,-15.26 -51.16,-25.45 -55.8,15.24 h -46.52 l -23.21,40.71 -60.45,30.57 c 0,0 -37.26,40.62 -55.78,61.1 -18.7,20.35 -65.13,40.71 -65.13,40.71 l -79.09,55.96 c 0,0 -88.32,40.72 -106.91,61.05 -18.61,20.37 -69.76,-5.07 -69.76,-5.07 h -69.73 c 0,0 -65.12,20.33 -79.1,40.77 -13.95,20.27 -55.81,10.14 -55.81,10.14 l -83.65,-15.25 c 0,0 -60.41,35.62 -69.82,50.93 -9.26,15.25 -46.42,30.48 -46.42,30.48 0,0 -79.07,-10.21 -93.01,-5.19 -14,5.19 -79.09,-15.15 -93.04,-10.04 -14,5.02 -69.72,35.53 -69.72,35.53 h -74.48 c 0,0 -65.06,-10.14 -79,-10.14 -13.96,0 -65.13,10.14 -79.05,15.24 -13.96,5.11 -74.41,15.25 -88.39,15.25 -13.96,0 -51.14,0 -51.14,0 l -69.83,20.36 -65.03,20.41 h -93.02 l -60.48,-5.1 -69.64,35.61 -37.28,-15.25 -83.69,10.2 -65.14,15.24 -65.06,-15.24 -74.41,-20.42 c 0,0 -55.82,-15.25 -69.75,-5.04 -13.97,10.07 -65.12,30.51 -65.12,30.51 l -93.02,20.33 -51.16,5.12 h -37.19 l -55.81,10.23 -60.41,45.76 -88.34,35.66 -106.98,35.52 -55.78,20.41 -41.84,-25.44 h -69.78 l -69.74,35.68 -65.13,35.53 -79.07,40.73 -79.02,30.63 -65.09,25.31 -74.42,25.47 h -60.44 l -32.59,-30.51 -18.58,-45.74 -27.88,-50.92 -37.19,-66.18 -37.2,-35.66 -51.19,-45.75 -41.83,-45.85 -69.8,-30.55 -41.82,-40.7 -60.46,-30.5 h -65.13 l -60.4,15.25 -79.073,10.2 H 886.73 l -74.371,-25.45 -51.136,-45.74 -18.606,-45.9 -27.883,-45.75 -60.449,-40.7 -102.32,5.11 -23.27,-35.62 -55.757,-30.63 c 0,0 -37.254,-15.17 -51.208,-15.17 -13.953,0 -32.511,-25.48 -32.511,-25.48 l -65.117,-35.6 -46.497,-15.23 -46.527,-45.88 -46.484,-30.55 -41.805,-30.51 -37.23,-45.81 -60.5004,-30.58 -43.47657,-23.74 V 798.848 H 8412.81 v 861.432 l -39.22,12.59" /></clipPath><linearGradient
       id="linearGradient102"
       spreadMethod="pad"
       gradientTransform="matrix(-8e-5,1932.54,8451.23,3.7e-4,-18.418,798.848)"
       gradientUnits="userSpaceOnUse"
       y2="0"
       x2="1"
       y1="0"
       x1="0"><stop
         id="stop96"
         offset="0"
         style="stop-opacity:1;stop-color:#ffffff" /><stop
         id="stop98"
         offset="0.32805493"
         style="stop-opacity:1;stop-color:#79accc" /><stop
         id="stop100"
         offset="1"
         style="stop-opacity:1;stop-color:#79accc" /></linearGradient><clipPath
       id="clipPath112"
       clipPathUnits="userSpaceOnUse"><path
         id="path110"
         d="m 2739.09,2149.98 c -15.15,-4.37 -29.54,-8.67 -39.02,-12.05 -29.33,-10.23 -82.08,-40.79 -82.08,-40.79 0,0 -93.75,10.15 -111.36,10.15 -17.61,0 -93.75,-15.25 -93.75,-15.25 0,0 -87.96,-25.6 -117.23,-25.6 -29.33,0 -82.04,5.17 -82.04,5.17 0,0 -76.19,25.53 -82.11,40.87 -5.87,15.22 -99.62,-51.09 -117.25,-56.26 -17.55,-5.04 -87.86,-40.88 -105.47,-40.88 -17.57,0 -82,5.2 -99.66,15.39 -17.59,10.14 -17.59,30.66 -17.59,30.66 l -52.72,10.22 c 0,0 -76.13,-10.22 -93.73,-10.22 -17.63,0 -64.51,15.33 -64.51,15.33 l -123.1,35.76 -70.31,40.84 -70.38,45.9 -58.59,40.89 -87.92,20.44 c -34.72,8.7 -355.09,111.14 -336.422,121.89 -48.227,-27.67 -92.832,-70.96 -155.723,-96.29 -0.164,-0.06 -99.805,-25.6 -99.805,-25.6 l -87.933,-35.76 -76.227,-30.6 -52.742,-76.69 -99.586,-45.89 -70.391,76.53 -46.839,51.08 -23.426,-35.67 L 44.9961,2117.5 1.58203,2100.11 V 1601.73 H 2739.09 v 548.25" /></clipPath><linearGradient
       id="linearGradient120"
       spreadMethod="pad"
       gradientTransform="matrix(-3e-5,780.713,2777.51,1.2e-4,-18.418,1601.73)"
       gradientUnits="userSpaceOnUse"
       y2="0"
       x2="1"
       y1="0"
       x1="0"><stop
         id="stop114"
         offset="0"
         style="stop-opacity:1;stop-color:#ffffff" /><stop
         id="stop116"
         offset="0.32805493"
         style="stop-opacity:1;stop-color:#33869e" /><stop
         id="stop118"
         offset="1"
         style="stop-opacity:1;stop-color:#33869e" /></linearGradient><clipPath
       id="clipPath130"
       clipPathUnits="userSpaceOnUse"><path
         id="path128"
         d="m 1661.59,1945.96 -68.91,-15.82 -47.19,-31.51 -43.53,15.69 -32.61,23.72 -47.15,-15.74 -25.41,39.54 -43.55,-15.88 -36.25,-15.82 -68.94,86.87 -47.15,71.06 -36.27,23.74 h -39.89 l -72.58,-39.5 -68.914,-39.53 -36.25,-7.84 -65.312,-7.93 -58.016,-15.76 -39.906,15.76 h -54.399 -72.566 l -47.125,23.67 c 0,0 -65.313,-39.43 -76.211,-39.43 -10.871,0 -54.418,-63.21 -54.418,-63.21 l -54.391,-15.74 -43.539,7.84 h -39.886 l -47.18,-63.16 -54.414,-78.98 c 0,0 -54.375,-78.83 -65.293,-86.86 -10.867,-7.86 -50.754,-86.82 -68.918,-63.18 -18.1173,23.77 -58.0197,23.77 -58.0197,23.77 l -43.51949,63.13 -2.30078,3.81 V 1071.5 H 1659.74 l 1.85,874.46" /></clipPath><linearGradient
       id="linearGradient138"
       spreadMethod="pad"
       gradientTransform="matrix(-5e-5,1040.3,1700.01,7e-5,-18.418,1071.5)"
       gradientUnits="userSpaceOnUse"
       y2="0"
       x2="1"
       y1="0"
       x1="0"><stop
         id="stop132"
         offset="0"
         style="stop-opacity:1;stop-color:#ffffff" /><stop
         id="stop134"
         offset="0.41503706"
         style="stop-opacity:1;stop-color:#ffffff" /><stop
         id="stop136"
         offset="1"
         style="stop-opacity:1;stop-color:#33869e" /></linearGradient><clipPath
       id="clipPath150"
       clipPathUnits="userSpaceOnUse"><path
         id="path148"
         d="m 2234.19,924.773 v 19.231 l 35.76,19.109 41.71,19.258 47.65,19.219 53.62,25.54 47.71,19.21 -35.78,38.41 -53.62,12.8 29.81,44.67 65.54,6.4 71.5,12.81 71.52,57.66 41.68,38.41 65.53,70.27 29.82,44.79 -5.96,38.44 v 38.32 51.24 l 17.87,70.31 29.79,25.61 29.8,57.55 17.9,44.85 35.71,-6.4 41.75,44.75 -5.96,38.41 -17.88,25.55 23.84,19.13 47.64,-12.72 h 35.79 l 71.48,12.72 -23.82,32.02 23.82,25.63 53.64,70.28 17.85,51.23 41.75,-19.2 35.74,-6.4 h 71.52 l 59.58,12.78 77.45,44.83 23.81,19.24 17.89,31.94 c 0,0 35.78,19.15 17.88,25.56 -17.88,6.38 -35.77,12.79 -35.77,12.79 l -47.65,19.21 35.77,19.2 29.77,32.01 47.7,6.34 41.69,19.12 47.66,38.45 11.93,38.43 35.76,44.76 17.87,31.93 41.71,38.41 h 71.5 l 41.69,25.66 59.63,31.92 41.7,25.61 59.58,19.15 53.64,57.62 63.13,9.63 49.95,9.6 49.99,25.54 62.42,3.19 102.4,20.21 -131.26,-125.79 -23.85,-57.5 41.7,-51.25 h 41.74 l 41.74,19.26 -71.55,-96.02 6.01,-102.4 -71.57,-63.88 -65.51,-70.37 11.9,-51.16 -65.56,-127.9 -113.23,-172.77 -23.8,-70.39 -423.1,-511.71 -852.07,-486.185 -393.3,-19.226 -101.26,179.187 59.57,95.867" /></clipPath><linearGradient
       id="linearGradient156"
       spreadMethod="pad"
       gradientTransform="matrix(-9e-5,1987.3,2232.97,1e-4,2154.62,649.717)"
       gradientUnits="userSpaceOnUse"
       y2="0"
       x2="1"
       y1="0"
       x1="0"><stop
         id="stop152"
         offset="0"
         style="stop-opacity:1;stop-color:#e1e6e6" /><stop
         id="stop154"
         offset="1"
         style="stop-opacity:1;stop-color:#7fb0cc" /></linearGradient><clipPath
       id="clipPath166"
       clipPathUnits="userSpaceOnUse"><path
         id="path164"
         d="m 1685.06,1385.44 4.99,63.88 20,44.83 14.95,63.92 24.98,32 44.97,44.74 24.97,57.67 34.97,57.56 30,57.56 19.95,51.11 v 44.88 l 25,44.66 29.96,38.41 4.99,44.83 9.99,25.64 24.95,31.93 55,44.76 34.95,19.21 29.97,19.2 44.96,38.41 49.96,31.91 29.94,19.22 35,38.42 14.97,25.52 39.97,-12.72 h 29.98 l 14.97,19.13 49.99,19.2 29.96,38.35 29.95,25.64 39.96,19.23 29.97,19.18 35.01,19.15 39.94,12.78 40,25.57 34.95,-12.74 -44.99,-51.16 -34.96,-19.18 20,-38.47 v -25.53 -57.55 l -5.01,-64.04 -19.97,-31.91 -29.96,38.31 -39.98,12.82 v 32.01 25.61 25.55 l 4.97,38.33 -39.94,-12.8 -49.97,-57.48 -24.97,-70.44 -44.95,-31.91 v -57.61 l -24.99,-63.97 -19.98,-31.93 -19.98,6.35 15,-89.6 -25,-19.22 -24.95,32 -30,-108.69 15.01,-44.84 5,-57.49 -15,-57.63 -30,25.62 -29.94,19.21 -30,-25.61 -39.95,-25.63 -29.95,-38.36 -15,-70.36 h -34.97 l -4.98,-83.16 -39.97,-76.78 -44.97,-44.76 -24.97,-31.93 -24.97,6.31 19.95,63.97 9.99,38.4 20,70.34 44.97,44.8 19.98,44.74 19.99,38.43 34.95,51.19 -19.97,44.82 -14.98,38.35 v 51.11 l -24.99,19.26 -29.98,-76.78 -24.97,-25.55 -10,-38.41 -29.95,-25.63 29.95,-38.36 v -44.76 l -29.95,-12.8 -29.99,-64.02 -29.98,-70.31 -14.97,12.8 20,76.72 19.95,51.22 -5,19.12 -9.98,38.44 19.98,38.36 15,51.24 -34.98,-32.02 -29.97,-51.26 -14.97,-38.35 -54.97,-83.15 -5,-70.32 -44.95,-25.63 -10,-44.79 -44.94,-38.29" /></clipPath><linearGradient
       id="linearGradient172"
       spreadMethod="pad"
       gradientTransform="matrix(-5e-5,1144.97,1064.07,5e-5,1665.06,1366.25)"
       gradientUnits="userSpaceOnUse"
       y2="0"
       x2="1"
       y1="0"
       x1="0"><stop
         id="stop168"
         offset="0"
         style="stop-opacity:1;stop-color:#e1e6e6" /><stop
         id="stop170"
         offset="1"
         style="stop-opacity:1;stop-color:#7fb0cc" /></linearGradient><clipPath
       id="clipPath182"
       clipPathUnits="userSpaceOnUse"><path
         id="path180"
         d="m 2799.02,2472.87 -44.95,-57.56 -24.98,-44.84 -14.99,-63.88 10,-57.64 v -38.31 l 4.99,-51.21 19.99,-57.61 4.99,-51.09 15,44.74 -5,83.18 5,57.48 4.98,64.06 -4.98,31.93 20.01,38.35 14.94,51.26 29.99,57.55 -34.99,-6.41" /></clipPath><linearGradient
       id="linearGradient188"
       spreadMethod="pad"
       gradientTransform="matrix(-2e-5,428.545,159.912,1e-5,2694.1,2050.73)"
       gradientUnits="userSpaceOnUse"
       y2="0"
       x2="1"
       y1="0"
       x1="0"><stop
         id="stop184"
         offset="0"
         style="stop-opacity:1;stop-color:#e1e6e6" /><stop
         id="stop186"
         offset="1"
         style="stop-opacity:1;stop-color:#7fb0cc" /></linearGradient><clipPath
       id="clipPath204"
       clipPathUnits="userSpaceOnUse"><path
         id="path202"
         d="m 4812.9,2235.98 -39.35,-114.96 -50.61,-80.62 -50.63,-103.43 5.64,-138.02 33.75,-80.57 22.5,-68.99 -5.65,-92.03 5.65,-92.01 28.11,46.06 5.6,80.48 11.28,68.93 16.85,69.08 22.51,46.04 33.75,57.48 39.34,138.02 -50.6,-11.46 22.5,57.48 16.86,46.02 28.12,57.54 22.53,23.02 9.35,99.55 -37.49,-30.65 h -28.11 l -61.9,23.04" /></clipPath><linearGradient
       id="linearGradient210"
       spreadMethod="pad"
       gradientTransform="matrix(-3e-5,778.232,308.086,1e-5,4652.31,1465.35)"
       gradientUnits="userSpaceOnUse"
       y2="0"
       x2="1"
       y1="0"
       x1="0"><stop
         id="stop206"
         offset="0"
         style="stop-opacity:1;stop-color:#ffffff" /><stop
         id="stop208"
         offset="1"
         style="stop-opacity:1;stop-color:#7fb0cc" /></linearGradient><clipPath
       id="clipPath220"
       clipPathUnits="userSpaceOnUse"><path
         id="path218"
         d="m 6445.69,1673.24 -59.93,-44.76 -54.95,-64.01 v -57.52 l -19.98,-57.63 -34.95,-44.73 -15.03,-38.34 -24.96,-25.62 -34.98,31.93 -14.97,-31.93 -20,-25.64 -19.97,-32.03 v -70.28 l 14.99,-64.06 14.97,-57.48 v -64.01 l 15.01,32 h 19.97 l 34.99,-19.2 v -63.992 -44.754 l 34.93,-6.411 10.01,63.911 19.99,70.446 15.02,70.36 9.94,57.59 v 57.55 l -4.98,44.75 v 51.25 l 14.96,44.81 10.03,63.88 24.96,12.8 24.97,57.6 34.98,76.76 4.98,76.76" /></clipPath><linearGradient
       id="linearGradient226"
       spreadMethod="pad"
       gradientTransform="matrix(-3e-5,748.467,339.727,1e-5,6125.97,924.775)"
       gradientUnits="userSpaceOnUse"
       y2="0"
       x2="1"
       y1="0"
       x1="0"><stop
         id="stop222"
         offset="0"
         style="stop-opacity:1;stop-color:#ffffff" /><stop
         id="stop224"
         offset="1"
         style="stop-opacity:1;stop-color:#7fb0cc" /></linearGradient><clipPath
       id="clipPath236"
       clipPathUnits="userSpaceOnUse"><path
         id="path234"
         d="m 6780.4,995.176 -64.93,-63.992 -74.95,-64.028 -59.94,-19.043 -64.94,-44.832 -44.96,-76.789 -64.95,-44.746 -59.96,-44.82 -69.89,-25.649 h -64.97 l -44.97,38.442 -39.96,19.226 h -29.94 l -69.93,-25.605 h -49.98 l 14.98,-44.883 24.98,-38.328 -10,-19.133 -59.94,-44.812 -69.95,-51.157 -64.91,-25.574 -54.97,-25.613 -114.86,-57.617 -50.01,-51.157 35.01,-6.382 49.93,19.187 59.96,12.82 -39.96,-57.586 54.96,-32.011 64.92,51.191 20,-51.191 -14.98,-70.281 69.91,51.062 54.95,38.43 59.94,76.707 29.97,-38.328 34.99,32.007 49.95,31.938 14.97,-51.164 54.97,31.953 34.96,19.211 49.98,-6.406 9.98,-63.938 69.94,51.133 24.96,19.211 29.96,38.426 19.99,19.187 34.95,51.106 5.02,38.437 14.98,70.344 -49.95,-38.344 -44.98,-44.722 -39.96,-32.036 5.03,38.352 19.97,38.406 19.95,31.938 24.99,38.347 29.98,38.465 39.97,19.184 24.98,32.027 29.99,6.406 54.94,38.34 39.95,12.805 34.98,6.418 29.97,31.93 c 0,0 64.95,38.46 49.95,38.46 -15.01,0 -49.95,6.383 -49.95,6.383 l 15,44.668 24.97,32.024 29.97,44.824 49.95,76.716 -44.96,-25.544" /></clipPath><linearGradient
       id="linearGradient242"
       spreadMethod="pad"
       gradientTransform="matrix(179.04,1015.39,1110.3,-195.775,5555.71,197.637)"
       gradientUnits="userSpaceOnUse"
       y2="0"
       x2="1"
       y1="0"
       x1="0"><stop
         id="stop238"
         offset="0"
         style="stop-opacity:1;stop-color:#ffffff" /><stop
         id="stop240"
         offset="1"
         style="stop-opacity:1;stop-color:#7fb0cc" /></linearGradient><clipPath
       id="clipPath252"
       clipPathUnits="userSpaceOnUse"><path
         id="path250"
         d="M 621.012,828.906 521.094,726.492 456.156,656.121 401.215,585.73 386.238,528.176 331.277,483.379 281.324,438.594 251.367,406.641 201.391,361.836 181.43,310.691 121.461,265.938 91.5,227.48 1.58203,150.813 6.57422,528.176 41.5469,585.73 l 29.9804,38.403 24.9571,25.586 20.0156,57.554 14.977,38.442 39.968,38.34 9.985,57.656 4.984,-76.887 v -63.945 l -4.984,-51.16 34.957,12.808 54.965,70.286 14.98,-19.129 39.961,38.347 34.957,6.407 c 0,0 5.02,-12.723 19.988,-6.407 14.996,6.407 59.946,44.844 59.946,44.844 l 44.972,44.836 29.949,31.852 25.004,51.21 24.961,6.411 9.993,-44.817 49.96,19.231 -5.011,-76.692" /></clipPath><linearGradient
       id="linearGradient258"
       spreadMethod="pad"
       gradientTransform="matrix(-3e-5,780.371,664.443,3e-5,-18.418,150.811)"
       gradientUnits="userSpaceOnUse"
       y2="0"
       x2="1"
       y1="0"
       x1="0"><stop
         id="stop254"
         offset="0"
         style="stop-opacity:1;stop-color:#e1e6e6" /><stop
         id="stop256"
         offset="1"
         style="stop-opacity:1;stop-color:#7fb0cc" /></linearGradient><clipPath
       id="clipPath268"
       clipPathUnits="userSpaceOnUse"><path
         id="path266"
         d="m 3763.24,1430.41 24.99,-84.61 v -144.92 l -8.34,-48.25 -25.01,-108.89 33.35,-72.439 V 898.816 L 3821.5,790 v -96.672 l 33.33,60.559 33.3,96.66 16.66,169.093 -41.63,-24.074 v 60.264 l 24.97,36.32 v 60.48 l 24.98,60.34 33.27,36.18 -16.61,48.4 -58.29,12.1 v 72.43 72.49 l -33.32,-60.34 -74.92,36.18" /></clipPath><linearGradient
       id="linearGradient274"
       spreadMethod="pad"
       gradientTransform="matrix(169.381,733.67,284.636,-65.7134,3585.15,747.9)"
       gradientUnits="userSpaceOnUse"
       y2="0"
       x2="1"
       y1="0"
       x1="0"><stop
         id="stop270"
         offset="0"
         style="stop-opacity:1;stop-color:#ffffff" /><stop
         id="stop272"
         offset="1"
         style="stop-opacity:1;stop-color:#7fb0cc" /></linearGradient><clipPath
       id="clipPath284"
       clipPathUnits="userSpaceOnUse"><path
         id="path282"
         d="m 4047.88,1414.86 46.64,-25.46 26.65,-42.7 13.29,-59.7 6.69,-76.76 v -93.79 l 13.31,-42.7 -6.65,-76.758 33.3,25.548 13.35,42.7 6.63,68.31 26.64,33.99 13.31,76.8 19.97,42.66 h -33.28 l -39.98,34.07 v 34.17 l -59.96,51.24 -79.91,8.38" /></clipPath><linearGradient
       id="linearGradient290"
       spreadMethod="pad"
       gradientTransform="matrix(35.5223,406.022,262.455,-22.9618,3992.43,1010.59)"
       gradientUnits="userSpaceOnUse"
       y2="0"
       x2="1"
       y1="0"
       x1="0"><stop
         id="stop286"
         offset="0"
         style="stop-opacity:1;stop-color:#ffffff" /><stop
         id="stop288"
         offset="1"
         style="stop-opacity:1;stop-color:#7fb0cc" /></linearGradient><clipPath
       id="clipPath300"
       clipPathUnits="userSpaceOnUse"><path
         id="path298"
         d="m 2910.52,680.371 29.94,25.84 14.96,77.519 14.95,51.719 19.94,17.207 5,42.996 4.96,43.176 19.96,8.543 19.94,60.289 24.94,68.95 34.93,-43.09 -5.02,-60.227 -14.97,-43.176 -24.93,-51.672 -9.95,-51.621 34.88,8.625 14.97,68.914 44.86,60.239 10,43.058 14.96,43.07 24.9,34.45 14.27,31.58 20.63,45.88 24.97,-8.52 29.89,34.47 29.9,34.46 -49.83,-103.36 -14.98,-51.72 24.96,-43.08 49.85,60.29 49.85,34.51 24.95,68.9 44.87,77.46 -34.91,-103.41 -39.88,-86.03 -34.93,-77.547 -24.92,-34.461 V 861.27 l -29.91,-68.985 -39.88,-17.226 h -29.89 l 9.95,25.925 4.99,34.465 9.95,51.699 -14.94,25.762 -24.96,-25.762 -14.95,-17.253 9.97,-86.165 -14.95,-34.433 -29.93,25.762 -44.86,-8.536 -44.87,-8.671 v -68.848 l -19.98,25.832 -24.89,-17.258 -14.97,-77.519 v -60.286 l -39.89,25.825 -34.9,-17.207 -29.91,-34.496 -5,34.496 29.91,111.98" /></clipPath><linearGradient
       id="linearGradient306"
       spreadMethod="pad"
       gradientTransform="matrix(204.253,819.213,400.824,-99.9367,2853.4,541.934)"
       gradientUnits="userSpaceOnUse"
       y2="0"
       x2="1"
       y1="0"
       x1="0"><stop
         id="stop302"
         offset="0"
         style="stop-opacity:1;stop-color:#ffffff" /><stop
         id="stop304"
         offset="1"
         style="stop-opacity:1;stop-color:#7fb0cc" /></linearGradient><clipPath
       id="clipPath316"
       clipPathUnits="userSpaceOnUse"><path
         id="path314"
         d="m 1383.95,423.281 56.14,105.696 35.93,70.867 29.03,66.277 2.99,40.442 32.33,51.425 28.92,49.114 16.66,32.3 28.84,49.121 7.24,39.067 35.83,53.648 15.87,36.102 52.45,86.18 87.07,-1.74 -27.2,-144.214 -16.63,-120.457 -24.61,-39.621 -6.42,-42.8 -25.39,-57.989 -22.76,-40.715 0.52,-38.296 -13.39,42.546 -8.28,37.344 -3.16,32.219 -22.61,-23.586 -29.04,-66.309 -12.89,4.317 -22.79,-40.703 -23.43,-19.793 c 0,0 -5.12,5.172 -14.7,-5.539 -9.57,-10.567 -35.81,-53.582 -35.81,-53.582 l -25.4,-46.875 -16.67,-32.329 -10.71,-41.328 -16.52,-15.254 -12.74,21.504 -32.2,-34.09 -6.47,47.051" /></clipPath><linearGradient
       id="linearGradient322"
       spreadMethod="pad"
       gradientTransform="matrix(201.526,-526.104,-628.171,-240.62,1810.06,1135.65)"
       gradientUnits="userSpaceOnUse"
       y2="0"
       x2="1"
       y1="0"
       x1="0"><stop
         id="stop318"
         offset="0"
         style="stop-opacity:1;stop-color:#e1e6e6" /><stop
         id="stop320"
         offset="1"
         style="stop-opacity:1;stop-color:#7fb0cc" /></linearGradient><clipPath
       id="clipPath332"
       clipPathUnits="userSpaceOnUse"><path
         id="path330"
         d="m 4624.8,1767.31 29.91,-103.37 9.99,-103.29 -19.94,-77.59 -9.99,-86.17 -19.93,-77.46 -14.96,34.45 -19.97,86.08 -14.94,-34.36 -9.97,-34.47 c 0,0 -14.97,8.66 -9.97,51.6 4.97,43.07 24.92,94.76 24.92,94.76 l 4.99,43.16 v 68.91 l -19.94,94.71 h 44.88 l 24.92,43.04" /></clipPath><linearGradient
       id="linearGradient340"
       spreadMethod="pad"
       gradientTransform="matrix(-2e-5,447.891,164.668,1e-5,4520.03,1319.42)"
       gradientUnits="userSpaceOnUse"
       y2="0"
       x2="1"
       y1="0"
       x1="0"><stop
         id="stop334"
         offset="0"
         style="stop-opacity:1;stop-color:#e1e6e6" /><stop
         id="stop336"
         offset="0.61985859"
         style="stop-opacity:1;stop-color:#e1e6e6" /><stop
         id="stop338"
         offset="1"
         style="stop-opacity:1;stop-color:#7fb0cc" /></linearGradient></defs><g
     transform="matrix(1.3333333,0,0,-1.3333333,0,788.97333)"
     id="g10"><g
       transform="scale(0.1)"
       id="g12"><g
         id="g14"><g
           clip-path="url(#clipPath20)"
           id="g16"><g
             clip-path="url(#clipPath26)"
             id="g22"><path
               id="path34"
               style="fill:url(#linearGradient32);fill-opacity:1;fill-rule:nonzero;stroke:none"
               d="m 1,1495 v 4422 h 8411 v -27 h 1 V 1495" /></g></g></g><g
         id="g36"><g
           clip-path="url(#clipPath42)"
           id="g38"><path
             id="path50"
             style="fill:url(#linearGradient48);fill-opacity:1;fill-rule:nonzero;stroke:none"
             d="m 8411.59,4160.13 h 1.2188 v 17.125 h -1.2188 z" /></g></g><g
         id="g52"><g
           clip-path="url(#clipPath58)"
           id="g54"><path
             id="path68"
             style="fill:url(#linearGradient66);fill-opacity:1;fill-rule:nonzero;stroke:none"
             d="m 8390.23,1963.51 c -31.19,6.54 -56.14,52.73 -81.02,72.58 -24.97,19.74 -18.77,52.78 -37.51,85.67 -18.68,33.13 -31.15,72.62 -31.15,72.62 l -74.85,46.03 c 0,0 -37.46,0 -93.6,0 -56.12,0 -93.59,-6.54 -93.59,-6.54 l -49.85,-13.15 -87.37,-19.79 -68.63,39.48 c 0,0 -37.43,-65.88 -43.66,-98.81 -6.25,-33.01 -43.68,-46.19 -68.6,-59.41 -25.02,-13.17 -62.4,0 -62.4,0 l -43.69,-72.5 -49.92,26.4 -49.87,65.86 -43.67,46.19 -56.1,-32.94 -68.73,-26.33 -56.08,39.48 -93.6,6.62 h -37.39 l -43.7,-39.56 -43.64,39.56 -43.68,33.02 -49.92,-59.4 h -87.28 l -50,-6.64 -68.59,-59.32 -43.69,72.57 -24.88,65.96 -56.16,46.15 -81.14,32.92 -49.89,19.82 h -68.59 c 0,0 -81.13,39.5 -99.85,52.76 -18.69,13.28 -56.14,19.82 -56.14,19.82 l -99.84,39.48 -81.07,13.22 -62.35,-6.66 -43.72,-13.08 -93.58,6.52 h -74.81 l -56.18,-52.75 h -74.83 l -87.35,-59.31 -87.35,-33.02 -93.59,-26.31 -137.19,-19.79 -62.45,-19.77 -68.58,-26.27 -81.09,-6.75 -74.84,-32.94 -68.66,-19.79 -74.84,46.19 h -37.5 l -31.16,-66.03 -56.11,6.62 -31.19,26.4 -49.89,-39.57 -31.25,-59.33 -18.74,-52.74 -56.09,-72.57 -31.16,-39.59 -62.43,-46.13 -49.89,-6.55 -31.2,72.43 -93.57,72.57 c 0,0 -43.64,-59.33 -62.37,-72.57 -18.72,-13.09 -18.72,-19.75 -56.17,-19.75 -37.38,0 -74.86,-26.28 -74.86,-26.28 0,0 -49.89,-33 -68.62,-33 -18.69,0 -43.65,46.09 -43.65,46.09 l -93.61,13.19 -74.84,-19.74 -106.06,-32.94 c 0,0 -112.27,0 -130.98,6.55 -18.71,6.54 -87.34,32.94 -87.34,32.94 l -68.66,13.19 -74.8,-39.59 -93.62,-46.09 -68.6,-39.5 -87.35,6.55 -99.82,26.31 -93.52,46.19 H 2782 l -43.64,-13.15 -74.87,-13.24 -37.44,-26.34 -56.14,-59.33 -106.05,-52.78 h -49.9 l -87.35,-33.1 c 0,0 -93.56,-32.86 -112.3,-32.86 -18.68,0 -81.08,-33 -81.08,-33 l -68.62,13.21 -99.81,85.75 -37.44,-39.56 -24.93,-32.94 h -43.68 l -56.17,19.77 -37.45,26.3 -43.61,-13.13 -24.95,-98.88 h -49.93 l -56.11,13.13 -62.42,26.35 -81.14,65.86 -37.36,-19.63 -62.4,-39.57 -74.89,-59.33 -49.93,52.67 -74.82,59.4 h -43.63 l -56.18,-19.74 h -43.66 l -49.928,-13.2 -56.137,-6.63 -99.777,-39.49 -6.285,-237.4 H 8412.81 v 679.68 c -8.46,2.5 -16.29,4.65 -22.58,6.03" /></g></g><g
         id="g70"><g
           clip-path="url(#clipPath76)"
           id="g72"><path
             id="path86"
             style="fill:url(#linearGradient84);fill-opacity:1;fill-rule:nonzero;stroke:none"
             d="m 8380.82,1397.18 h -55.76 l -55.84,-20.36 -51.12,40.79 -32.6,50.86 -55.77,30.49 -60.48,30.57 -37.24,45.74 -41.78,30.51 -46.5,30.65 -46.53,45.72 -46.49,15.25 -65.12,35.67 c 0,0 -18.59,25.52 -32.52,25.52 -13.97,0 -51.18,15.25 -51.18,15.25 l -55.75,30.48 -23.29,35.69 -102.32,-5.2 -60.47,40.73 -27.86,45.9 -18.59,45.73 -51.17,45.74 -74.39,25.47 h -60.49 l -79.04,-10.08 -60.4,-15.39 h -65.14 l -60.46,30.64 -41.83,40.72 -69.78,30.5 -41.83,45.73 -51.19,45.89 -37.19,35.54 -37.18,66.16 -27.89,50.94 -18.62,45.81 -32.56,30.5 H 6544 l -74.4,-25.46 -65.13,-25.39 -79.02,-30.56 -79.06,-40.73 -65.16,-35.58 -69.71,-35.69 h -69.77 l -41.84,25.45 -55.78,-20.35 -106.98,-35.61 -88.36,-35.59 -60.38,-45.83 -55.79,-10.2 h -37.22 l -51.19,-5.03 -93.02,-20.43 c 0,0 -51.12,-20.28 -65.06,-30.51 -13.96,-10.2 -69.76,5.05 -69.76,5.05 l -74.46,20.42 -65.05,15.25 -65.14,-15.25 -83.67,-10.22 -37.28,15.26 -69.64,-35.53 -60.5,5.02 h -92.99 l -65.04,-20.28 -69.81,-20.42 c 0,0 -37.19,0 -51.19,0 -13.93,0 -74.41,-10.22 -88.39,-15.26 -13.89,-5.02 -65.07,-15.25 -79.05,-15.25 -13.91,0 -78.99,10.23 -78.99,10.23 h -74.42 c 0,0 -55.79,-30.64 -69.77,-35.68 -13.94,-5.04 -79.03,15.24 -93.02,10.21 -13.99,-5.17 -92.99,5.03 -92.99,5.03 0,0 -37.2,-15.24 -46.47,-30.48 -9.35,-15.25 -69.78,-50.95 -69.78,-50.95 l -83.68,15.26 c 0,0 -41.88,10.21 -55.82,-10.13 -13.96,-20.36 -79.05,-40.65 -79.05,-40.65 h -69.76 c 0,0 -51.16,25.33 -69.75,5.04 -18.58,-20.44 -106.91,-61.14 -106.91,-61.14 l -79.05,-55.99 c 0,0 -46.51,-20.3 -65.15,-40.73 -18.56,-20.35 -55.77,-60.98 -55.77,-60.98 l -60.44,-30.57 -23.27,-40.64 h -46.51 l -55.81,-15.39 -51.14,25.47 -46.52,15.25 -41.84,-15.25 -60.43,25.45 c 0,0 -13.94,5.11 -27.98,5.11 -13.85,0 -65.01,25.47 -65.01,25.47 h -46.55 l -55.84,-20.35 h -60.41 l -46.5,15.24 -37.15,-10.22 -51.24,-40.7 -69.71,25.45 c 0,0 -55.82,0 -69.73,-10.2 -13.99,-10.08 -79.06,-5.06 -79.06,-5.06 l -79.09,-15.25 c 0,0 -27.86,-10.2 -46.46,-25.45 -18.65,-15.25 -55.84,-30.49 -69.79,-30.49 -13.98,0 -60.44,0 -60.44,0 l -55.82,25.47 -79.03,25.45 c 0,0 -92.99,-35.68 -106.97,-35.68 -13.97,0 -55.8,-40.72 -69.7,-50.91 -14.01,-10.22 -69.78,-30.51 -69.78,-30.51 l -41.87,-30.49 -74.42,-40.79 -60.46,-20.35 -65.02,-71.21 c 0,0 -32.62,-50.92 -46.51,-61.06 -14,-10.22 -97.69,-30.57 -97.69,-30.57 l -107.01,-35.53 -55.77,10.08 h -65.08 c 0,0 -69.765,-25.39 -88.335,-20.29 -18.579,5.04 -69.832,45.74 -69.832,45.74 l -83.684,15.32 c 0,0 -60.426,20.37 -74.356,25.39 -13.996,5.12 -79.085,40.7 -79.085,40.7 l -51.114,45.84 -51.211,-35.62 c 0,0 -65.109,-20.35 -79.058,-20.35 -13.91,0 -41.832,0 -41.832,0 0,0 -27.895,-50.93 -51.16,-61.07 -23.243,-10.21 -23.243,-40.72 -46.485,-50.91 -23.301,-10.14 -88.324,15.25 -88.324,15.25 l -74.4727,76.37 -51.1172,35.69 c 0,0 -27.2344,33.94 -46.08207,39.78 V 502.727 H 8412.81 v 886.383 l -31.99,8.07" /></g></g><g
         id="g88"><g
           clip-path="url(#clipPath94)"
           id="g90"><path
             id="path104"
             style="fill:url(#linearGradient102);fill-opacity:1;fill-rule:nonzero;stroke:none"
             d="m 8373.59,1672.87 -69.74,-35.53 c 0,0 -106.94,-5.11 -125.57,-5.11 -18.58,0 -51.11,-40.78 -51.11,-40.78 l -51.13,-35.62 -74.5,-76.3 c 0,0 -65,-25.46 -88.31,-15.25 -23.22,10.13 -23.22,40.71 -46.49,50.92 -23.24,10.16 -51.15,61.08 -51.15,61.08 0,0 -27.91,0 -41.85,0 -13.98,0 -79.05,20.27 -79.05,20.27 l -51.19,35.68 -51.12,-45.81 c 0,0 -65.08,-35.67 -79.08,-40.73 -13.95,-5.12 -74.36,-25.45 -74.36,-25.45 l -83.69,-15.25 c 0,0 -51.25,-40.71 -69.8,-45.89 -18.63,-5.03 -88.34,20.43 -88.34,20.43 h -65.09 l -55.78,-10.21 -106.98,35.67 c 0,0 -83.72,20.37 -97.71,30.51 -13.89,10.19 -46.51,61.05 -46.51,61.05 l -65.02,71.28 -60.5,20.35 -74.38,40.73 -41.88,30.49 c 0,0 -55.79,20.36 -69.78,30.56 -13.93,10.14 -55.73,50.93 -69.72,50.93 -13.97,0 -106.95,35.53 -106.95,35.53 l -79.02,-25.4 -55.82,-25.45 c 0,0 -46.45,0 -60.45,0 -13.92,0 -51.17,15.32 -69.79,30.49 -18.57,15.32 -46.48,25.46 -46.48,25.46 l -79.07,15.34 c 0,0 -65.09,-5.19 -79.03,5.03 -13.97,10.22 -69.76,10.22 -69.76,10.22 l -69.71,-25.48 -51.23,40.71 -37.16,10.22 -46.52,-15.26 h -60.39 l -55.86,20.3 h -46.51 c 0,0 -51.18,-25.47 -65.06,-25.47 -14.02,0 -27.96,-5.02 -27.96,-5.02 l -60.45,-25.48 -41.82,15.26 -46.51,-15.26 -51.16,-25.45 -55.8,15.24 h -46.52 l -23.21,40.71 -60.45,30.57 c 0,0 -37.26,40.62 -55.78,61.1 -18.7,20.35 -65.13,40.71 -65.13,40.71 l -79.09,55.96 c 0,0 -88.32,40.72 -106.91,61.05 -18.61,20.37 -69.76,-5.07 -69.76,-5.07 h -69.73 c 0,0 -65.12,20.33 -79.1,40.77 -13.95,20.27 -55.81,10.14 -55.81,10.14 l -83.65,-15.25 c 0,0 -60.41,35.62 -69.82,50.93 -9.26,15.25 -46.42,30.48 -46.42,30.48 0,0 -79.07,-10.21 -93.01,-5.19 -14,5.19 -79.09,-15.15 -93.04,-10.04 -14,5.02 -69.72,35.53 -69.72,35.53 h -74.48 c 0,0 -65.06,-10.14 -79,-10.14 -13.96,0 -65.13,10.14 -79.05,15.24 -13.96,5.11 -74.41,15.25 -88.39,15.25 -13.96,0 -51.14,0 -51.14,0 l -69.83,20.36 -65.03,20.41 h -93.02 l -60.48,-5.1 -69.64,35.61 -37.28,-15.25 -83.69,10.2 -65.14,15.24 -65.06,-15.24 -74.41,-20.42 c 0,0 -55.82,-15.25 -69.75,-5.04 -13.97,10.07 -65.12,30.51 -65.12,30.51 l -93.02,20.33 -51.16,5.12 h -37.19 l -55.81,10.23 -60.41,45.76 -88.34,35.66 -106.98,35.52 -55.78,20.41 -41.84,-25.44 h -69.78 l -69.74,35.68 -65.13,35.53 -79.07,40.73 -79.02,30.63 -65.09,25.31 -74.42,25.47 h -60.44 l -32.59,-30.51 -18.58,-45.74 -27.88,-50.92 -37.19,-66.18 -37.2,-35.66 -51.19,-45.75 -41.83,-45.85 -69.8,-30.55 -41.82,-40.7 -60.46,-30.5 h -65.13 l -60.4,15.25 -79.073,10.2 H 886.73 l -74.371,-25.45 -51.136,-45.74 -18.606,-45.9 -27.883,-45.75 -60.449,-40.7 -102.32,5.11 -23.27,-35.62 -55.757,-30.63 c 0,0 -37.254,-15.17 -51.208,-15.17 -13.953,0 -32.511,-25.48 -32.511,-25.48 l -65.117,-35.6 -46.497,-15.23 -46.527,-45.88 -46.484,-30.55 -41.805,-30.51 -37.23,-45.81 -60.5004,-30.58 -43.47657,-23.74 V 798.848 H 8412.81 v 861.432 l -39.22,12.59" /></g></g><g
         id="g106"><g
           clip-path="url(#clipPath112)"
           id="g108"><path
             id="path122"
             style="fill:url(#linearGradient120);fill-opacity:1;fill-rule:nonzero;stroke:none"
             d="m 2739.09,2149.98 c -15.15,-4.37 -29.54,-8.67 -39.02,-12.05 -29.33,-10.23 -82.08,-40.79 -82.08,-40.79 0,0 -93.75,10.15 -111.36,10.15 -17.61,0 -93.75,-15.25 -93.75,-15.25 0,0 -87.96,-25.6 -117.23,-25.6 -29.33,0 -82.04,5.17 -82.04,5.17 0,0 -76.19,25.53 -82.11,40.87 -5.87,15.22 -99.62,-51.09 -117.25,-56.26 -17.55,-5.04 -87.86,-40.88 -105.47,-40.88 -17.57,0 -82,5.2 -99.66,15.39 -17.59,10.14 -17.59,30.66 -17.59,30.66 l -52.72,10.22 c 0,0 -76.13,-10.22 -93.73,-10.22 -17.63,0 -64.51,15.33 -64.51,15.33 l -123.1,35.76 -70.31,40.84 -70.38,45.9 -58.59,40.89 -87.92,20.44 c -34.72,8.7 -355.09,111.14 -336.422,121.89 -48.227,-27.67 -92.832,-70.96 -155.723,-96.29 -0.164,-0.06 -99.805,-25.6 -99.805,-25.6 l -87.933,-35.76 -76.227,-30.6 -52.742,-76.69 -99.586,-45.89 -70.391,76.53 -46.839,51.08 -23.426,-35.67 L 44.9961,2117.5 1.58203,2100.11 V 1601.73 H 2739.09 v 548.25" /></g></g><g
         id="g124"><g
           clip-path="url(#clipPath130)"
           id="g126"><path
             id="path140"
             style="fill:url(#linearGradient138);fill-opacity:1;fill-rule:nonzero;stroke:none"
             d="m 1661.59,1945.96 -68.91,-15.82 -47.19,-31.51 -43.53,15.69 -32.61,23.72 -47.15,-15.74 -25.41,39.54 -43.55,-15.88 -36.25,-15.82 -68.94,86.87 -47.15,71.06 -36.27,23.74 h -39.89 l -72.58,-39.5 -68.914,-39.53 -36.25,-7.84 -65.312,-7.93 -58.016,-15.76 -39.906,15.76 h -54.399 -72.566 l -47.125,23.67 c 0,0 -65.313,-39.43 -76.211,-39.43 -10.871,0 -54.418,-63.21 -54.418,-63.21 l -54.391,-15.74 -43.539,7.84 h -39.886 l -47.18,-63.16 -54.414,-78.98 c 0,0 -54.375,-78.83 -65.293,-86.86 -10.867,-7.86 -50.754,-86.82 -68.918,-63.18 -18.1173,23.77 -58.0197,23.77 -58.0197,23.77 l -43.51949,63.13 -2.30078,3.81 V 1071.5 H 1659.74 l 1.85,874.46" /></g></g><path
         id="path142"
         style="fill:#e1e6e6;fill-opacity:1;fill-rule:nonzero;stroke:none"
         d="m 1105.6,1577.27 59.89,38.41 49.97,51.16 24.99,57.59 39.94,12.8 30.01,38.41 29.98,19.13 19.95,51.16 10,44.86 4.99,38.34 25,44.75 19.96,12.78 h 44.99 49.92 l 44.97,-6.38 39.97,25.59 29.98,-6.39 39.94,12.79 49.95,19.22 25,-32.01 49.95,12.79 29.94,19.22 h 40 l 59.95,12.82 29.94,6.42 20,6.4 649.42,403 59.93,25.52 25,12.83 39.95,6.34 h 59.94 l 39.94,12.79 30,-19.13 44.95,-12.83 34.97,-6.37 49.97,-25.56 44.95,-31.99 h 15 34.95 l 44.95,-32.06 h 40 l 54.93,-6.4 34.96,-6.41 h 34.94 64.97 l 34.97,-38.32 49.95,51.13 64.94,-38.35 119.89,89.62 29.97,31.93 15,38.35 59.92,25.59 59.96,38.44 49.94,51.1 29.99,32.01 24.95,-25.61 44.95,-12.74 59.97,-38.45 39.96,-12.72 34.99,19.23 34.97,-6.51 39.95,12.92 34.98,-70.48 49.96,-57.54 L 4297.67,598.457 1135.55,489.785 1105.6,1577.27" /><g
         id="g144"><g
           clip-path="url(#clipPath150)"
           id="g146"><path
             id="path158"
             style="fill:url(#linearGradient156);fill-opacity:1;fill-rule:nonzero;stroke:none"
             d="m 2234.19,924.773 v 19.231 l 35.76,19.109 41.71,19.258 47.65,19.219 53.62,25.54 47.71,19.21 -35.78,38.41 -53.62,12.8 29.81,44.67 65.54,6.4 71.5,12.81 71.52,57.66 41.68,38.41 65.53,70.27 29.82,44.79 -5.96,38.44 v 38.32 51.24 l 17.87,70.31 29.79,25.61 29.8,57.55 17.9,44.85 35.71,-6.4 41.75,44.75 -5.96,38.41 -17.88,25.55 23.84,19.13 47.64,-12.72 h 35.79 l 71.48,12.72 -23.82,32.02 23.82,25.63 53.64,70.28 17.85,51.23 41.75,-19.2 35.74,-6.4 h 71.52 l 59.58,12.78 77.45,44.83 23.81,19.24 17.89,31.94 c 0,0 35.78,19.15 17.88,25.56 -17.88,6.38 -35.77,12.79 -35.77,12.79 l -47.65,19.21 35.77,19.2 29.77,32.01 47.7,6.34 41.69,19.12 47.66,38.45 11.93,38.43 35.76,44.76 17.87,31.93 41.71,38.41 h 71.5 l 41.69,25.66 59.63,31.92 41.7,25.61 59.58,19.15 53.64,57.62 63.13,9.63 49.95,9.6 49.99,25.54 62.42,3.19 102.4,20.21 -131.26,-125.79 -23.85,-57.5 41.7,-51.25 h 41.74 l 41.74,19.26 -71.55,-96.02 6.01,-102.4 -71.57,-63.88 -65.51,-70.37 11.9,-51.16 -65.56,-127.9 -113.23,-172.77 -23.8,-70.39 -423.1,-511.71 -852.07,-486.185 -393.3,-19.226 -101.26,179.187 59.57,95.867" /></g></g><g
         id="g160"><g
           clip-path="url(#clipPath166)"
           id="g162"><path
             id="path174"
             style="fill:url(#linearGradient172);fill-opacity:1;fill-rule:nonzero;stroke:none"
             d="m 1685.06,1385.44 4.99,63.88 20,44.83 14.95,63.92 24.98,32 44.97,44.74 24.97,57.67 34.97,57.56 30,57.56 19.95,51.11 v 44.88 l 25,44.66 29.96,38.41 4.99,44.83 9.99,25.64 24.95,31.93 55,44.76 34.95,19.21 29.97,19.2 44.96,38.41 49.96,31.91 29.94,19.22 35,38.42 14.97,25.52 39.97,-12.72 h 29.98 l 14.97,19.13 49.99,19.2 29.96,38.35 29.95,25.64 39.96,19.23 29.97,19.18 35.01,19.15 39.94,12.78 40,25.57 34.95,-12.74 -44.99,-51.16 -34.96,-19.18 20,-38.47 v -25.53 -57.55 l -5.01,-64.04 -19.97,-31.91 -29.96,38.31 -39.98,12.82 v 32.01 25.61 25.55 l 4.97,38.33 -39.94,-12.8 -49.97,-57.48 -24.97,-70.44 -44.95,-31.91 v -57.61 l -24.99,-63.97 -19.98,-31.93 -19.98,6.35 15,-89.6 -25,-19.22 -24.95,32 -30,-108.69 15.01,-44.84 5,-57.49 -15,-57.63 -30,25.62 -29.94,19.21 -30,-25.61 -39.95,-25.63 -29.95,-38.36 -15,-70.36 h -34.97 l -4.98,-83.16 -39.97,-76.78 -44.97,-44.76 -24.97,-31.93 -24.97,6.31 19.95,63.97 9.99,38.4 20,70.34 44.97,44.8 19.98,44.74 19.99,38.43 34.95,51.19 -19.97,44.82 -14.98,38.35 v 51.11 l -24.99,19.26 -29.98,-76.78 -24.97,-25.55 -10,-38.41 -29.95,-25.63 29.95,-38.36 v -44.76 l -29.95,-12.8 -29.99,-64.02 -29.98,-70.31 -14.97,12.8 20,76.72 19.95,51.22 -5,19.12 -9.98,38.44 19.98,38.36 15,51.24 -34.98,-32.02 -29.97,-51.26 -14.97,-38.35 -54.97,-83.15 -5,-70.32 -44.95,-25.63 -10,-44.79 -44.94,-38.29" /></g></g><g
         id="g176"><g
           clip-path="url(#clipPath182)"
           id="g178"><path
             id="path190"
             style="fill:url(#linearGradient188);fill-opacity:1;fill-rule:nonzero;stroke:none"
             d="m 2799.02,2472.87 -44.95,-57.56 -24.98,-44.84 -14.99,-63.88 10,-57.64 v -38.31 l 4.99,-51.21 19.99,-57.61 4.99,-51.09 15,44.74 -5,83.18 5,57.48 4.98,64.06 -4.98,31.93 20.01,38.35 14.94,51.26 29.99,57.55 -34.99,-6.41" /></g></g><path
         id="path192"
         style="fill:#ffffff;fill-opacity:1;fill-rule:nonzero;stroke:none"
         d="m 8403.93,833.152 -36.64,25.453 -43.27,25.625 -63.3,46.954 -53.3,42.644 -26.63,-17.098 -13.33,-51.132 -39.98,34.136 h -56.6 l -49.94,-8.55 -43.3,4.296 -39.96,16.981 -46.64,4.269 -66.61,25.641 -63.26,12.805 -63.24,25.544 -33.35,38.41 -26.65,4.25 -36.6,4.3 -36.66,38.34 -36.61,42.6 -33.3,34.17 -49.97,21.34 -39.99,21.37 c 0,0 -46.59,12.72 -56.58,12.72 -9.98,0 -36.64,16.98 -36.64,16.98 0,0 -43.28,8.71 -53.28,12.9 -9.99,4.2 -46.65,4.2 -46.65,4.2 l -39.93,29.89 -39.99,25.58 -33.27,38.48 -49.98,16.97 -43.27,4.26 -46.64,21.37 -39.94,42.63 -50,12.8 -26.65,46.97 -56.6,51.06 -46.61,17.09 -46.62,38.44 -36.65,21.23 -43.29,29.91 -46.6,12.81 -33.31,38.35 -56.62,21.34 h -36.64 c 0,0 -36.66,-25.61 -46.63,-25.61 -9.99,0 -39.97,21.36 -39.97,21.36 l -46.61,-17.09 -39.96,-12.8 -39.97,-8.46 -49.97,-21.34 c 0,0 -39.96,12.73 -49.95,12.73 -9.96,0 -39.94,-12.73 -39.94,-12.73 l -46.63,8.43 -46.62,17.1 c 0,0 -33.31,-21.28 -43.32,-21.28 -9.97,0 -39.94,0 -39.94,0 l -29.94,21.28 -53.33,-17.1 -46.63,8.55 -23.31,12.82 -33.27,25.58 -46.66,8.56 -36.62,17.11 -53.29,12.8 -46.6,21.25 c 0,0 -33.32,21.35 -43.29,42.63 -10.04,21.35 -43.31,34.16 -43.31,34.16 l -46.61,38.34 -43.29,51.15 -39.98,51.25 -46.63,21.32 -46.63,17.08 -33.3,21.23 h -46.61 l -23.34,42.68 -26.6,25.59 -33.36,12.82 -16.62,38.43 -36.67,4.2 -26.6,34.09 -26.63,38.41 -49.96,-51.14 -43.29,34.07 -59.96,17.07 -16.66,42.72 -33.32,34.04 -56.58,46.89 -33.3,21.37 -26.66,4.27 -36.63,34.14 -43.29,29.83 -33.3,38.33 -43.29,46.97 -33.32,25.6 -29.95,34.09 -26.65,12.74 h -26.66 l -23.31,-17 -33.28,-21.33 -26.64,-25.54 -43.32,-47 -26.64,-38.33 -16.65,-29.82 -19.98,-38.42 -16.66,-55.43 -29.95,-59.7 -30,-64.03 -16.64,-29.77 -16.64,-34.1 -23.31,-42.72 -26.64,-4.25 -33.32,-21.34 -43.27,-25.56 -23.36,-29.81 -29.93,-34.17 -29.97,-17.07 -16.66,-55.51 3.31,-29.79 -36.61,-25.53 -53.29,-42.7 -26.63,-12.82 -33.3,-8.55 h -26.67 l -13.28,-34.08 -10.05,-25.55 -16.65,-34.17 -33.27,-29.85 -9.97,-29.83 -3.36,-25.62 -16.66,-34.07 -16.63,-25.63 -6.66,-25.61 -16.65,-25.61 -13.34,-38.25 -16.65,-59.78 -23.3,-25.6 -26.64,-12.73 -33.3,-17.12 -33.32,-21.27 -29.97,-17.07 -39.94,8.57 -36.66,17.05 -23.33,-29.87 -33.3,-17.11 -33.31,-21.33 -13.3,-17.07 -6.65,-29.92 -16.65,-29.7 -23.3,-25.63 -20,-21.32 -39.97,-29.93 -26.62,-21.32 -20.01,-12.65 -29.96,-25.65 -33.33,-25.62 -23.29,-21.29 -23.3,-17.12 -23.34,-25.615 -26.61,-12.722 -36.64,-34.172 -23.31,-12.727 -29.99,-17.058 -33.29,-12.832 -19.98,-12.813 -19.97,-12.801 -20,-59.628 -13.32,-42.688 -19.98,-42.617 -36.64,4.18 h -33.29 l -26.64,21.347 -13.35,-12.793 -29.97,21.367 -23.3,38.399 -16.64,29.914 -36.65,21.148 -43.3,-4.254 -39.95,4.254 h -33.3 l -23.32,-4.254 -46.62,29.918 -33.3,25.618 -49.94,34.14 c 0,0 -40,8.449 -49.99,12.727 -9.99,4.265 -26.61,25.625 -26.61,25.625 l -46.64,34.087 -36.63,42.66 -23.32,17.1 -19.97,34.17 -56.62,16.9 -53.3,-16.9 -26.64,-12.87 -49.93,8.43 -23.32,-4.19 -36.65,25.53 -39.97,29.88 -23.28,42.7 -46.64,42.72 -33.3,38.27 -29.96,8.55 -43.31,4.25 -26.64,38.41 -29.98,25.62 -56.62,25.53 -63.25,25.59 c -39.97,4.24 -79.94,68.28 -79.94,68.28 l -46.62,55.35 -39.97,59.78 -19.98,38.33 -36.6,17.12 -23.34,4.24 h -30 l -36.622,17.07 -49.922,4.3 -33.301,-8.56 -56.632,-25.61 -39.95,-8.56 -26.644,-12.72 -16.66,-12.81 H 754.23 l -23.3,-12.8 -26.629,-17.08 -33.328,-12.82 -66.586,-29.88 H 577.738 551.09 l -23.332,17.07 -26.625,4.3 -26.641,-21.37 -16.66,-12.81 -26.637,-16.94 -33.308,-25.6 -33.301,-25.63 -33.309,-21.33 -26.644,-17.08 -33.281,-4.24 -46.649,4.24 -39.945,4.35 H 154.785 134.797 L 101.48,1408.85 84.8477,1395.95 61.5273,1378.98 31.5508,1357.7 4.90625,1344.88 1.58203,432.598 V 0 H 8403.93 v 833.152" /><path
         id="path194"
         style="fill:#ffffff;fill-opacity:1;fill-rule:nonzero;stroke:none"
         d="M 1.58203,9.98047 H 0.0429688 L 0,0 h 1.58203 v 9.98047" /><path
         id="path196"
         style="fill:#ffffff;fill-opacity:1;fill-rule:nonzero;stroke:none"
         d="M 1.58203,9.98047 V 432.598 L 0.0429688,9.98047 Z" /><g
         id="g198"><g
           clip-path="url(#clipPath204)"
           id="g200"><path
             id="path212"
             style="fill:url(#linearGradient210);fill-opacity:1;fill-rule:nonzero;stroke:none"
             d="m 4812.9,2235.98 -39.35,-114.96 -50.61,-80.62 -50.63,-103.43 5.64,-138.02 33.75,-80.57 22.5,-68.99 -5.65,-92.03 5.65,-92.01 28.11,46.06 5.6,80.48 11.28,68.93 16.85,69.08 22.51,46.04 33.75,57.48 39.34,138.02 -50.6,-11.46 22.5,57.48 16.86,46.02 28.12,57.54 22.53,23.02 9.35,99.55 -37.49,-30.65 h -28.11 l -61.9,23.04" /></g></g><g
         id="g214"><g
           clip-path="url(#clipPath220)"
           id="g216"><path
             id="path228"
             style="fill:url(#linearGradient226);fill-opacity:1;fill-rule:nonzero;stroke:none"
             d="m 6445.69,1673.24 -59.93,-44.76 -54.95,-64.01 v -57.52 l -19.98,-57.63 -34.95,-44.73 -15.03,-38.34 -24.96,-25.62 -34.98,31.93 -14.97,-31.93 -20,-25.64 -19.97,-32.03 v -70.28 l 14.99,-64.06 14.97,-57.48 v -64.01 l 15.01,32 h 19.97 l 34.99,-19.2 v -63.992 -44.754 l 34.93,-6.411 10.01,63.911 19.99,70.446 15.02,70.36 9.94,57.59 v 57.55 l -4.98,44.75 v 51.25 l 14.96,44.81 10.03,63.88 24.96,12.8 24.97,57.6 34.98,76.76 4.98,76.76" /></g></g><g
         id="g230"><g
           clip-path="url(#clipPath236)"
           id="g232"><path
             id="path244"
             style="fill:url(#linearGradient242);fill-opacity:1;fill-rule:nonzero;stroke:none"
             d="m 6780.4,995.176 -64.93,-63.992 -74.95,-64.028 -59.94,-19.043 -64.94,-44.832 -44.96,-76.789 -64.95,-44.746 -59.96,-44.82 -69.89,-25.649 h -64.97 l -44.97,38.442 -39.96,19.226 h -29.94 l -69.93,-25.605 h -49.98 l 14.98,-44.883 24.98,-38.328 -10,-19.133 -59.94,-44.812 -69.95,-51.157 -64.91,-25.574 -54.97,-25.613 -114.86,-57.617 -50.01,-51.157 35.01,-6.382 49.93,19.187 59.96,12.82 -39.96,-57.586 54.96,-32.011 64.92,51.191 20,-51.191 -14.98,-70.281 69.91,51.062 54.95,38.43 59.94,76.707 29.97,-38.328 34.99,32.007 49.95,31.938 14.97,-51.164 54.97,31.953 34.96,19.211 49.98,-6.406 9.98,-63.938 69.94,51.133 24.96,19.211 29.96,38.426 19.99,19.187 34.95,51.106 5.02,38.437 14.98,70.344 -49.95,-38.344 -44.98,-44.722 -39.96,-32.036 5.03,38.352 19.97,38.406 19.95,31.938 24.99,38.347 29.98,38.465 39.97,19.184 24.98,32.027 29.99,6.406 54.94,38.34 39.95,12.805 34.98,6.418 29.97,31.93 c 0,0 64.95,38.46 49.95,38.46 -15.01,0 -49.95,6.383 -49.95,6.383 l 15,44.668 24.97,32.024 29.97,44.824 49.95,76.716 -44.96,-25.544" /></g></g><g
         id="g246"><g
           clip-path="url(#clipPath252)"
           id="g248"><path
             id="path260"
             style="fill:url(#linearGradient258);fill-opacity:1;fill-rule:nonzero;stroke:none"
             d="M 621.012,828.906 521.094,726.492 456.156,656.121 401.215,585.73 386.238,528.176 331.277,483.379 281.324,438.594 251.367,406.641 201.391,361.836 181.43,310.691 121.461,265.938 91.5,227.48 1.58203,150.813 6.57422,528.176 41.5469,585.73 l 29.9804,38.403 24.9571,25.586 20.0156,57.554 14.977,38.442 39.968,38.34 9.985,57.656 4.984,-76.887 v -63.945 l -4.984,-51.16 34.957,12.808 54.965,70.286 14.98,-19.129 39.961,38.347 34.957,6.407 c 0,0 5.02,-12.723 19.988,-6.407 14.996,6.407 59.946,44.844 59.946,44.844 l 44.972,44.836 29.949,31.852 25.004,51.21 24.961,6.411 9.993,-44.817 49.96,19.231 -5.011,-76.692" /></g></g><g
         id="g262"><g
           clip-path="url(#clipPath268)"
           id="g264"><path
             id="path276"
             style="fill:url(#linearGradient274);fill-opacity:1;fill-rule:nonzero;stroke:none"
             d="m 3763.24,1430.41 24.99,-84.61 v -144.92 l -8.34,-48.25 -25.01,-108.89 33.35,-72.439 V 898.816 L 3821.5,790 v -96.672 l 33.33,60.559 33.3,96.66 16.66,169.093 -41.63,-24.074 v 60.264 l 24.97,36.32 v 60.48 l 24.98,60.34 33.27,36.18 -16.61,48.4 -58.29,12.1 v 72.43 72.49 l -33.32,-60.34 -74.92,36.18" /></g></g><g
         id="g278"><g
           clip-path="url(#clipPath284)"
           id="g280"><path
             id="path292"
             style="fill:url(#linearGradient290);fill-opacity:1;fill-rule:nonzero;stroke:none"
             d="m 4047.88,1414.86 46.64,-25.46 26.65,-42.7 13.29,-59.7 6.69,-76.76 v -93.79 l 13.31,-42.7 -6.65,-76.758 33.3,25.548 13.35,42.7 6.63,68.31 26.64,33.99 13.31,76.8 19.97,42.66 h -33.28 l -39.98,34.07 v 34.17 l -59.96,51.24 -79.91,8.38" /></g></g><g
         id="g294"><g
           clip-path="url(#clipPath300)"
           id="g296"><path
             id="path308"
             style="fill:url(#linearGradient306);fill-opacity:1;fill-rule:nonzero;stroke:none"
             d="m 2910.52,680.371 29.94,25.84 14.96,77.519 14.95,51.719 19.94,17.207 5,42.996 4.96,43.176 19.96,8.543 19.94,60.289 24.94,68.95 34.93,-43.09 -5.02,-60.227 -14.97,-43.176 -24.93,-51.672 -9.95,-51.621 34.88,8.625 14.97,68.914 44.86,60.239 10,43.058 14.96,43.07 24.9,34.45 14.27,31.58 20.63,45.88 24.97,-8.52 29.89,34.47 29.9,34.46 -49.83,-103.36 -14.98,-51.72 24.96,-43.08 49.85,60.29 49.85,34.51 24.95,68.9 44.87,77.46 -34.91,-103.41 -39.88,-86.03 -34.93,-77.547 -24.92,-34.461 V 861.27 l -29.91,-68.985 -39.88,-17.226 h -29.89 l 9.95,25.925 4.99,34.465 9.95,51.699 -14.94,25.762 -24.96,-25.762 -14.95,-17.253 9.97,-86.165 -14.95,-34.433 -29.93,25.762 -44.86,-8.536 -44.87,-8.671 v -68.848 l -19.98,25.832 -24.89,-17.258 -14.97,-77.519 v -60.286 l -39.89,25.825 -34.9,-17.207 -29.91,-34.496 -5,34.496 29.91,111.98" /></g></g><g
         id="g310"><g
           clip-path="url(#clipPath316)"
           id="g312"><path
             id="path324"
             style="fill:url(#linearGradient322);fill-opacity:1;fill-rule:nonzero;stroke:none"
             d="m 1383.95,423.281 56.14,105.696 35.93,70.867 29.03,66.277 2.99,40.442 32.33,51.425 28.92,49.114 16.66,32.3 28.84,49.121 7.24,39.067 35.83,53.648 15.87,36.102 52.45,86.18 87.07,-1.74 -27.2,-144.214 -16.63,-120.457 -24.61,-39.621 -6.42,-42.8 -25.39,-57.989 -22.76,-40.715 0.52,-38.296 -13.39,42.546 -8.28,37.344 -3.16,32.219 -22.61,-23.586 -29.04,-66.309 -12.89,4.317 -22.79,-40.703 -23.43,-19.793 c 0,0 -5.12,5.172 -14.7,-5.539 -9.57,-10.567 -35.81,-53.582 -35.81,-53.582 l -25.4,-46.875 -16.67,-32.329 -10.71,-41.328 -16.52,-15.254 -12.74,21.504 -32.2,-34.09 -6.47,47.051" /></g></g><g
         id="g326"><g
           clip-path="url(#clipPath332)"
           id="g328"><path
             id="path342"
             style="fill:url(#linearGradient340);fill-opacity:1;fill-rule:nonzero;stroke:none"
             d="m 4624.8,1767.31 29.91,-103.37 9.99,-103.29 -19.94,-77.59 -9.99,-86.17 -19.93,-77.46 -14.96,34.45 -19.97,86.08 -14.94,-34.36 -9.97,-34.47 c 0,0 -14.97,8.66 -9.97,51.6 4.97,43.07 24.92,94.76 24.92,94.76 l 4.99,43.16 v 68.91 l -19.94,94.71 h 44.88 l 24.92,43.04" /></g></g></g></g></svg>